<svg width="196" height="64" viewBox="0 0 196 64" fill="none" xmlns="http://www.w3.org/2000/svg">
<path d="M163.919 4.22352V4.17636L163.999 4.07286L163.805 3.94054L163.849 3.83704L163.903 3.80953L164.102 3.81608L164.115 3.77023L164.101 3.64577L164.062 3.56847L164.098 3.51476L164.224 3.52131L164.364 3.61301L164.549 3.62219L164.679 3.71651L164.758 3.7283L165.376 3.68638L165.561 3.74534L165.788 3.58812L165.982 3.59205L166.061 3.74403L166.013 3.84883L166.089 3.77023L166.1 3.73616L166.071 3.56716L166.099 3.51607L166.287 3.44794L166.435 3.50297L166.528 3.49511L166.474 3.48855L166.374 3.41388L166.358 3.34706L166.369 2.93176L166.448 2.80599L166.235 2.64616L166.163 2.54397L166.105 2.50729L165.999 2.48763L165.797 2.5217L165.623 2.61602L165.596 2.6134L165.459 2.47584L165.432 2.38152L165.284 2.3016L165.152 2.31339L165.143 2.29767L165.297 2.11163L165.453 2.03958L165.602 2.18762L165.709 2.44178L165.763 2.44702L165.806 2.36842L165.745 2.17714L165.68 2.05923L165.73 2.04744L165.863 2.09329L165.954 2.04482L166.184 2.23871L166.199 2.3016L166.422 2.58982L166.499 2.60685L166.564 2.55576L166.708 2.33828L166.769 2.34352L166.879 2.46274L167.091 2.84922L167.143 2.89115L167.239 2.91997L167.318 2.86626H167.388L167.46 2.97106L167.66 3.05622L167.756 3.05884L167.825 3.03657L167.961 2.96189L168.013 2.89115L168.166 2.91735L168.182 2.96189L168.085 3.01823L168.063 3.05229L168.069 3.08766L168.113 3.12959L168.215 3.17282L168.292 3.13614L168.334 3.08111L168.366 3.07587L168.557 3.2226L168.541 3.25012L168.56 3.36671L168.587 3.38899L168.817 3.35492L168.89 3.38506L169.024 3.39685L169.141 3.38244L169.245 3.30252L169.384 3.29466L169.524 3.49117L169.702 3.58419L169.824 3.68638L169.977 3.70079L170.032 3.72568L170.024 3.69817L170.081 3.54882L170.168 3.46104L170.241 3.4296L170.323 3.46628L170.532 3.44139L170.64 3.35361L170.607 3.33527L170.527 3.38375L170.512 3.34837L170.542 3.23963L170.672 3.20426L170.768 3.20688L170.947 3.06277L170.942 2.96189L170.994 2.9632L171.042 3.01954L170.999 3.08897L170.759 3.29466L170.819 3.36541L170.656 3.5331L170.65 3.57895L170.677 3.64708L170.744 3.70996L170.815 3.67852L170.836 3.61957L170.951 3.52393L171.147 3.46628L171.028 3.61826L171.076 3.69162L171.18 3.64315L171.205 3.68638L171.092 3.85145L171.131 3.9484L171.172 3.9877L171.231 3.94971L171.337 3.93792L171.357 3.97198L171.454 3.96281L171.529 3.90386L171.628 3.65101L171.59 3.60122L171.457 3.61826L171.371 3.58157L171.364 3.5462L171.511 3.39947L171.75 3.23832L171.907 3.2095L171.875 3.31824L171.963 3.56847L172.063 3.7152L172.127 3.71389L172.181 3.67459L172.178 3.64315L172.085 3.60908L172.093 3.58157L172.207 3.55275L172.35 3.62612L172.494 3.82263L172.249 3.99556L172.166 4.09251L172.023 4.3244L171.99 4.49996L171.813 4.43314L171.798 4.53009L171.885 4.69254L171.884 4.83272L171.861 4.97028L171.762 5.11964L171.749 5.07378L171.635 5.11308L171.64 4.85499L171.618 4.83272L171.574 4.8432L171.518 4.99518L171.397 5.10129L171.34 5.10522L171.32 5.04889L171.251 5.02138L171.105 5.07902L171.011 5.15632L170.96 5.24409L170.964 5.28471L171.021 5.32925L170.984 5.41441L170.921 5.46681L170.896 5.63058L170.957 5.81268L171.011 5.84281L171.089 5.82316L171.15 5.75373L171.142 5.86246L171.098 6.01444L171.009 6.15331L170.97 6.41664L170.931 6.49262L170.767 6.60398L170.581 6.84635L170.467 7.04549L170.464 7.15161L170.288 7.27214L170.23 7.27083L170.317 7.52499L170.377 7.61539L170.471 7.6953L170.651 7.76081L170.907 7.92588L171.038 8.04641L171.416 8.24424L171.457 8.27961L171.49 8.45909L171.568 8.5508L171.919 8.7198L172.063 8.84033L172.194 8.98444L172.567 9.00017L172.717 9.07877L173.044 9.31328L173.211 9.38534L173.289 9.38272L173.435 9.43119L173.564 9.49539L173.735 9.77051L173.935 9.94213V24.2943H162.514L161.252 24.3035L161.244 7.46996L161.37 7.51189L161.506 7.6298L161.49 7.89706L161.513 7.92588L161.606 7.81059L161.552 7.45555L161.568 7.4228L161.713 7.46341L161.895 7.55643L162.186 7.88396L162.198 7.9547L162.276 7.92457L162.18 7.79749L162.128 7.68875L162.11 7.58001L162.141 7.51844L162.156 7.42018L162.373 7.45817L162.463 7.42804L162.576 7.31799L162.324 7.39791L162.197 7.31537L162.095 7.18174L162.072 7.11362L162.124 7.08741L162.236 7.07562L162.328 7.01012L162.333 6.97867L162.174 7.03239L162.006 7.00095L161.886 6.93151L161.75 6.8005L161.767 6.6839L161.851 6.52145L161.938 6.40485L162.277 6.18999L162.354 5.82578L162.346 5.75897L162.412 5.49564L162.512 5.39083L162.525 5.48253L162.575 5.51136L162.711 5.48646L162.884 5.36856L163.025 5.21789L163.011 5.16418L162.923 5.04234L162.875 5.00173L162.827 4.99125L162.815 4.9598L162.828 4.70302L162.851 4.63883L162.91 4.61263L162.929 4.64931L162.971 4.66896L163.024 4.65717L163.115 4.59166L163.151 4.51175L163.138 4.31916L163.153 4.27069L163.371 4.17243L163.501 4.32178L163.625 4.31261L163.506 4.27724L163.466 4.12396L163.503 4.03094L163.514 3.91565L163.471 3.8829L163.54 3.85407L163.74 3.91827L163.919 4.22352ZM164.007 3.2095L163.87 3.09421L163.611 2.98678L163.351 2.7811L163.246 2.50205L163.171 2.22037L163.181 2.11425L163.211 2.09067L163.407 2.26361L163.466 2.35924L163.651 2.4182L163.849 2.37104L163.925 2.29898L164.074 2.36317L164.238 2.23478L164.281 2.23085L164.31 2.32911L164.383 2.43392L164.389 2.39724L164.341 2.2754L164.358 2.20334L164.452 2.12867L164.658 2.21251L164.814 2.41951L164.826 2.52825L164.466 2.90949L164.42 2.91604L164.246 3.02871L164.007 3.2095ZM172.397 6.45987L172.419 6.42319L172.48 6.41926L172.444 6.60267L172.37 6.6315L172.175 6.57909L172.007 6.60398L171.649 6.51359L171.698 6.26336L171.688 6.15593L171.72 6.03409L171.761 5.96465L171.952 5.92797L171.997 5.8926L171.957 5.80089L172.075 5.70132L172.136 5.70525L172.126 5.77207L172.071 5.81006L172.123 5.96203L172.257 5.98561L172.304 5.93583L172.289 5.88605L172.315 5.85067L172.362 5.83757L172.404 5.86771L172.414 5.92142L172.275 6.06553L172.201 6.11401L172.114 6.30921L172.116 6.44415L172.157 6.47952L172.345 6.50835L172.397 6.45987ZM163.35 3.06408L163.116 2.97368L162.79 3.05753L162.712 3.04181L162.69 3.00644L162.68 2.96844L162.758 2.82564L162.823 2.86494L162.876 2.86757L162.928 2.81647L162.924 2.61602L162.901 2.55445L163.016 2.35138L163.141 2.32518L163.349 2.84922L163.449 2.87543L163.554 2.97106L163.521 3.04312L163.35 3.06408ZM171.826 2.51253L171.831 2.44571L172.022 2.16666L172.142 1.92036L172.206 1.8863L172.137 2.15356L171.907 2.47846L171.876 2.50729L171.826 2.51253ZM166.315 2.35138L166.274 2.30684L166.225 2.16928L166.183 1.92953L166.291 1.88761L166.358 2.11163L166.356 2.25313L166.315 2.35138ZM172.602 8.8744L172.522 8.81413L172.433 8.68181L172.459 8.60582L172.54 8.52591L172.604 8.60582L172.657 8.78007L172.62 8.87309L172.602 8.8744ZM171.399 5.99479L171.403 5.94238L171.358 5.86246L171.322 5.88736L171.344 5.95679H171.284L171.262 5.92928L171.275 5.80744L171.398 5.70918L171.458 5.71966L171.52 5.80482L171.501 5.89784L171.454 5.97382L171.399 5.99479ZM171.374 2.85053V2.78372L171.502 2.68022L171.609 2.67498L171.796 2.52825L171.783 2.6003L171.641 2.70904L171.374 2.85053ZM171.855 8.60451L171.819 8.58617L171.848 8.46302L171.928 8.408L171.968 8.42634L171.944 8.58748L171.855 8.60451Z" fill="url(#paint0_linear_14_2)"/>
<path d="M140.432 24.297L140.457 24.2485L140.458 24.0559L140.143 23.7192L139.975 23.4022L139.822 23.0105L139.672 22.9187L139.545 22.5545L139.533 22.4851L139.549 22.3436L139.462 22.1982L139.284 21.9886L139.233 21.8392L139.226 21.5313L139.283 21.382L139.314 21.1907L139.435 20.7977L139.532 20.6012L139.732 20.4427L139.767 20.3103L139.787 20.1335L139.755 19.9291L139.837 19.6776L139.822 19.5282L139.745 19.3147L139.629 19.1496L139.609 19.0251L139.811 18.6111L140 18.0648L140.136 17.8604L140.219 17.8133L140.323 17.7949L140.341 17.8316L140.271 17.9652L140.202 18.3674L140.293 18.5613L140.249 18.8443L140.31 18.9072L140.618 18.7762L140.657 18.6124L140.743 18.391L140.975 17.9836L141.012 17.8578L141.423 17.6272L141.578 17.6154L141.849 17.4792L142.14 17.3665L142.377 17.0849L142.462 17.018L142.64 16.9407L142.808 16.6866L143.139 16.5307L143.176 16.4337L143.265 16.3839L143.351 16.3735L143.585 16.2896L143.769 16.1743L143.912 16.0525L144.026 16.0774L144.087 16.139L144.15 16.156L144.419 16.0106L144.558 16.059L144.603 16.1114L144.702 16.156L144.807 16.1756L144.897 16.1743L145.29 16.0931L145.523 15.9909L145.832 15.6909L145.986 15.5979L146.006 15.6359L146.066 15.6372L146.503 15.5638L146.662 15.573L146.865 15.5049L147.075 15.2507L147.117 15.1367L147.258 15.028L147.411 15.0136L147.757 15.1L147.965 15.1813L148.252 15.0319L148.892 14.9376L149.03 14.8917L149.794 14.5708L150.004 14.4607L150.356 14.1646L150.655 13.7572L150.868 13.2947L151.063 13.0301L151.046 12.9095L151.096 12.7969L151.13 12.7641L151.222 12.7864L151.293 12.7484L151.396 12.6646L151.472 12.5532L151.559 12.51L151.854 12.2755L151.897 12.1707L151.889 12.0894L151.847 12.0501L151.736 12.0187L151.672 11.923L151.656 11.6427L151.573 11.4252L151.577 11.1357L151.621 10.9588L151.737 10.7584L151.91 10.5933L152.006 10.5317L152.185 10.5304L152.114 10.3693L152.173 10.288L152.212 10.2723L152.243 10.3024H152.277L152.436 10.2474L152.45 10.2055L152.414 10.1518L152.447 10.009L152.488 9.96312L152.562 9.9474L152.636 9.86487L152.643 9.78364L152.673 9.73517L152.773 9.69848L152.869 9.79543L152.84 9.83342L152.769 9.82556L152.723 9.98933L152.812 10.1125L152.92 10.1806L152.949 10.2933L153.219 10.8029L153.566 11.3623L153.597 11.4842L153.623 11.3545L153.575 11.2601L153.58 11.1435L153.658 10.9051L153.594 10.7086L153.62 10.5959L153.71 10.5933L153.889 10.8121L153.993 10.9064L154.044 10.9287L154.079 10.909L154.024 10.8828L153.959 10.8016L153.909 10.5972L154.042 10.4426L153.996 10.4177L153.888 10.4505L153.866 10.4348L153.797 10.2867L153.642 10.1177L153.65 9.95657L153.492 9.95919L153.384 9.86094L153.48 9.85701L153.688 9.90417L153.784 9.75744L153.796 9.68145L153.781 9.62381L153.624 9.59236L153.573 9.54651L153.57 9.41681L153.589 9.37489L153.809 9.32641L153.922 9.4155L153.89 9.48494L153.818 9.50459L153.968 9.66442L154.042 9.68014L154.045 9.6225L154.146 9.48363L154.318 9.50852L154.393 9.54258L154.431 9.56747L154.481 9.68931L154.52 9.71683L154.666 9.72469L154.739 9.64084L154.867 9.70372L155.013 9.71813L155.224 9.688L155.375 9.75482L155.456 9.72075L155.347 9.71027L155.18 9.63167L155.065 9.60416L154.991 9.59892L154.875 9.63298H154.788L154.763 9.60678L154.728 9.44825L154.805 9.2727L154.862 9.2596L154.93 9.3631L155.035 9.28973L155.024 9.15479L155.066 9.00151L155.224 8.84036L155.145 8.80761L155.069 8.82988L154.954 9.0264L154.888 9.02771L154.765 8.92028L154.724 8.63206L154.845 8.35301L154.889 8.33335L155.021 8.40934L155.126 8.35432L155.15 8.31763L155.135 8.03596L155.195 8.02155L155.487 8.17221L155.601 8.28357L155.866 8.41327L155.718 8.28095L155.71 8.2482L155.778 8.12374L155.748 8.0923L155.627 8.09098L155.487 8.14339L155.471 8.05954L155.523 7.98618L155.578 7.95997L155.618 7.98618L155.674 7.88923L155.63 7.87744L155.445 8.00059L155.406 7.99928L155.365 7.88792L155.41 7.82896L155.471 7.80014L155.554 7.82503L155.584 7.81586L155.658 7.76346L155.637 7.71367L155.722 7.65341L155.819 7.87482L155.844 7.89054L155.858 7.82765L155.84 7.70188L156.006 7.80014L156.01 7.85255L156.066 7.88006L156.197 7.87351L156.226 7.84599L156.201 7.82503L156.158 7.82896L156.121 7.7949L156.162 7.75429L156.009 7.64424L155.87 7.5748L155.917 7.51978L155.954 7.50668L155.804 7.28134L155.956 7.06255L156.087 6.9525L156.161 6.98395L156.444 6.9905L156.458 6.81232L156.431 6.6407L156.449 6.54244L156.486 6.51493L156.642 6.5896L156.519 7.11103L156.545 7.08351L156.632 6.78088L156.803 6.86866L156.777 7.02587L156.804 7.07696L156.887 7.12937L157.012 6.98919L157.078 6.94202L157.118 6.69179L157.226 6.47038L157.231 6.37868L157.139 6.14024L157.049 6.08259L157.12 6.06687L157.233 6.0839L157.33 6.13369L157.318 6.24374L157.246 6.27518L157.294 6.43501L157.353 6.45204L157.429 6.52934L157.465 6.4717L157.439 6.3944L157.495 6.26339L157.633 6.15334L157.733 6.13893L157.666 6.30269L157.826 6.511L157.872 6.5241L158.017 6.36951L158.138 6.1481L158.077 5.89132L158.235 5.82712L158.373 5.79437L158.46 5.86512L158.541 5.96992L158.516 6.02495L158.616 6.14941L158.651 6.09307L158.652 6.04591L158.776 6.04067L159.034 6.12452L159.169 6.3171L159.363 6.44811L159.785 7.04028L159.846 7.01015L160.085 7.21714L160.111 7.35995L160.043 7.4582L159.943 7.79883L159.958 7.95342L159.949 8.23248L159.875 8.38183L159.942 8.34253L159.981 8.2875L160.03 7.96521L160.101 7.99404L160.207 8.10016L160.249 8.23903L160.255 8.09754L160.16 7.93115L160.115 7.74774L160.276 7.52502L160.305 7.53026L160.342 7.7176L160.476 7.72154L160.49 7.65472L160.434 7.55253L160.39 7.35995L160.599 7.29968L161.254 7.46475L161.262 24.297L161.245 33.4965L160.953 33.6249L160.616 33.8228L160.093 34.0625L159.853 34.1595L159.465 34.2354L158.898 34.4568L158.602 34.5092L157.985 34.5381L157.579 34.4988L157.269 34.4084L157.113 34.4857L156.977 34.4555L156.743 34.5839L156.332 34.9246L156.232 34.9691L156.032 35.0123L155.6 35.2534L155.436 35.4014L155.249 35.5154L154.765 35.5953L154.594 35.6635L154.465 35.7709L154.346 35.9229L154.2 36.3526L154.133 36.6342L153.998 36.7299L153.871 36.8648L153.823 36.9618L153.822 37.0076L153.759 37.0771L153.548 37.2225L153.305 37.2041L153.268 37.2185L153.184 37.3338L153.119 37.3836L153.023 37.4151L152.928 37.1897L152.811 37.1399L152.567 37.2238L152.404 37.2002L152.212 37.2081L152.186 37.2343L151.985 37.2552L151.873 37.233L151.794 37.2644L151.743 37.3234L151.728 37.4098L151.541 37.4295L151.486 37.4111L151.516 37.3469L151.474 37.1989L151.393 37.0928L151.364 37.0823L151.255 37.1019L151.177 37.1766L151.063 37.2094L150.699 37.0771L150.612 37.0705L150.435 37.0666L150.034 37.1373H149.768L149.668 37.191L149.313 37.2408L149.139 37.3378L148.908 37.2788L148.558 37.2605L148.288 37.3443L148.184 37.4596L148.011 37.5526L147.937 37.6378L147.821 37.8448L147.801 37.9496L147.601 38.1474L147.436 38.2457L147.253 38.1802L147.016 38.1579L146.774 38.3243L146.745 38.3675L146.794 38.4225L146.745 38.4789L146.631 38.5496L146.403 38.6243L146.32 38.7108L146.277 38.8247L146.128 38.9374L145.846 39.0894L145.502 39.1523L145.497 39.1876L145.531 39.2243L145.725 39.2676L145.638 39.3173L145.532 39.2977L145.427 39.2138L145.346 39.1837L145.258 39.1889L145.214 39.2204L145.181 39.3396L145.073 39.2531L144.79 39.1326L144.251 39.13L144.177 39.1994L144.145 39.2007L143.935 39.1326L143.763 39.1601L143.563 39.1025L143.22 38.8719L142.877 38.792L142.792 38.5915L142.652 38.4278L142.418 38.1867L142.204 38.0426L141.948 37.9077L141.845 37.8959L141.743 37.9208L141.678 38.0059L141.518 37.8343L141.519 37.6863L141.445 37.157L141.44 36.8609L141.501 36.5753L141.561 36.5923L141.648 36.7233L141.816 36.7954L141.949 36.7836L142.064 36.7417L142.11 36.7142L142.509 36.1351L142.448 35.6582L142.343 35.1342L142.375 35.0202L142.483 34.8852L142.478 34.939L142.398 35.0294L142.395 35.0975L142.452 35.2612L142.491 35.3202L142.517 35.3019L142.514 35.2102L142.579 34.9691L142.538 34.5472L142.57 34.3311L142.546 34.1699L142.553 33.8332L142.5 33.5385L142.466 33.4454L142.122 32.8127L142.025 32.5192L141.943 32.3279L141.742 31.9742L141.571 31.5353L141.582 31.4908L141.538 31.158L141.444 30.8331L141.416 30.8082L141.422 30.1728L141.473 29.8754L141.403 29.6278L141.366 29.5688L141.344 29.4169L141.27 29.24L140.966 28.8758L140.927 28.7566L140.917 28.4919L140.802 28.2587L140.527 27.8434L140.421 27.7779L140.311 27.6207L140.227 27.2369L140.245 27.1176L140.292 27.0063L140.265 26.8399L140.196 26.5975L140.004 26.1953L139.809 25.8272L139.507 25.3883L139.077 24.9271L138.998 24.6743L139.063 24.5433L139.054 24.3979L139.059 24.3599L139.087 24.3402L139.11 24.6468L139.153 24.7359L139.197 24.4843L139.406 24.745L139.435 24.8302L139.452 25.0988L139.484 25.1957L139.588 25.3293L139.632 25.3385L139.636 25.2979L139.727 25.235L139.787 25.2494L139.888 25.0975L139.896 24.8276L139.794 24.6913L139.601 24.5629L139.458 24.4136L139.376 24.073L139.233 23.8398L139.258 23.7101L139.344 23.5725L139.384 23.6026L139.515 23.8411L139.665 23.9708L139.717 24.1188L139.683 24.3048L139.644 24.3481L139.648 24.4817L139.689 24.6035L139.761 24.6101L139.809 24.5577L139.922 24.3376L139.996 24.707L140.035 24.8079L140.191 25.0188L140.367 24.8787L140.405 24.7516L140.362 24.69L140.335 24.5787L140.383 24.2734L140.432 24.297ZM138.974 24.5236L138.932 24.4896L138.723 24.1699L138.618 23.9564L138.553 23.7101L138.562 23.5725L138.618 23.4913L138.688 23.5083L138.659 23.5777L138.664 23.621L138.831 24.1005L138.974 24.3625L139.002 24.466L138.974 24.5236ZM154.931 8.30977L154.919 8.26916L154.844 8.19841L154.856 8.13291L154.891 8.07657L154.983 8.03858L155.105 8.24427L154.931 8.30977ZM142.023 16.401L141.975 16.3604L141.94 16.3944L141.93 16.3826L141.931 16.3027L142.075 16.1062L142.122 16.0774L142.139 16.0866L142.159 16.1901L142.152 16.2359L142.07 16.3643L142.023 16.401ZM155.8 7.14378L155.726 7.10317L155.735 6.99181L155.767 6.90796L155.834 6.83852L155.899 6.91189L155.866 7.07172L155.815 7.09662L155.8 7.14378Z" fill="url(#paint1_linear_14_2)"/>
<path d="M189.507 40.7034L189.344 40.6196L189.156 40.3379L189.119 40.2344L189.121 39.9934L189.189 39.658L189.559 39.3829L189.724 39.4772L189.798 39.565L189.928 39.6134L190.015 39.6698L189.951 39.7274L189.82 39.7091L189.715 39.7602L189.647 39.8545L189.567 40.1807L189.598 40.541L189.588 40.5921L189.507 40.7034Z" fill="url(#paint2_linear_14_2)"/>
<path d="M190.825 43.5314L188.325 42.2606L188.198 42.2501L188.312 42.051L188.326 41.9239L188.196 41.6566L188.107 41.5414L188.034 40.9623L187.881 40.864L187.644 40.7618L187.523 40.809L187.325 40.771L187.193 40.7933L187.062 40.9584L186.935 40.9702L186.699 41.054L186.509 41.0409L186.195 40.9413L186.069 40.8418L185.923 40.8195L185.835 40.8313L185.785 40.8837L185.637 40.9479L185.345 40.9217L184.942 40.8444L184.844 40.8025L184.677 40.6413L184.575 40.5601L184.54 40.5562L184.433 40.5797L184.31 40.6479L184.186 40.6361L184.138 40.5968H183.966L183.789 40.6426L183.763 40.6741L183.714 40.8549L183.736 41.033L183.486 41.1038L183.432 41.0894L183.258 40.9872L182.962 40.6374L182.889 40.4697L182.856 40.4356L182.776 40.4094L182.633 40.281L182.524 40.1291L182.282 39.9994L182.065 39.833L181.965 39.7963L181.907 39.8094L181.82 39.7439L181.796 39.7072L181.829 39.6076L181.774 39.5225L181.66 39.4937L181.555 39.4282L181.49 39.284L181.452 39.0679L181.486 38.8963L181.487 38.7875L181.469 38.76L181.169 38.5949L180.959 38.5805L180.792 38.5124L180.773 38.4652L180.685 38.4063L180.604 38.4338L180.579 38.4692L180.534 38.6722L180.47 38.7535L180.351 38.7299L180.303 38.6735L180.307 38.6395L180.231 38.4364L180.109 38.3224L180.103 38.0761L179.906 37.7434L179.793 37.6648L179.631 37.5901L179.41 37.6359L179.201 37.5809L179.076 37.6294L178.997 37.7394L178.928 37.7761L178.904 37.7421L178.747 37.6451L178.515 37.5364L178.272 37.518L178.23 37.5062L178.163 37.4407L178.17 29.0954L178.337 29.0941L189.381 29.0954L189.489 29.0416L189.654 28.8333L190.104 28.4469L190.26 28.4036L190.297 28.4102L190.319 28.4573L190.442 28.494L190.876 28.456L191.079 28.3774L191.27 28.3538L191.308 28.363L191.416 28.4757L191.514 28.5425L191.749 28.5491L191.962 28.5045L192.318 28.6683L192.678 28.9814L192.694 29.2277L192.752 29.3561L192.783 29.3705L192.852 29.3535L192.919 29.2814L193.046 29.0194L193.289 28.9106L193.341 29.0115L193.428 29.0534L193.699 28.9224L193.744 28.6591L193.617 28.3683L193.753 28.2595L193.912 28.1809L194.192 28.0879L194.249 28.0486L194.278 27.9752L194.358 27.9071L194.421 27.9163L194.513 28.0119L194.744 28.063L195.008 28.0355L195.24 28.0512L195.348 27.9071L195.536 27.8717L195.691 27.8115L195.796 27.725L195.898 27.818L195.917 27.9241L195.872 28.2739L195.898 28.4573L195.963 28.5464L195.937 28.8713L195.714 29.1648L195.559 29.626L195.598 29.7399L195.44 30.6426L195.372 30.9072L195.109 31.6514L195.091 32.0903L195.113 32.1702L195.162 32.1767L195.187 32.2776L195.043 32.765L195.016 32.9576L194.868 33.4515L194.743 33.7082L194.457 34.0725L194.392 34.2428L194.434 34.4642L194.417 34.6987L194.171 34.9083L194.066 35.0314L193.849 35.1677L193.837 35.2398L193.873 35.3157L193.602 35.4114L193.404 35.5149L193.202 35.8201L193.069 36.1542L193.037 36.1804L192.966 36.1856L192.9 36.2394L192.885 36.3167L192.945 36.3704L192.9 36.5525L192.739 36.77L192.678 37.2285L192.644 37.3516L192.593 37.3909L192.511 37.3818L192.401 37.4263L192.479 37.4473L192.536 37.501L192.422 37.6883L192.294 37.784L192.168 37.9713L192.036 38.3604L192.093 38.4312L192.023 38.7535L191.932 38.8111L191.903 38.9107L191.953 39.0561L192.051 39.1596L192.029 39.2749L191.992 39.3076L191.945 39.2565L191.962 39.2212L191.942 39.1412L191.905 39.1373L191.815 39.1937L191.805 39.2513L191.841 39.3404L191.762 39.4295L191.611 39.5133L191.534 39.6587L191.527 39.7321L191.423 40.036L191.351 40.1526L191.079 40.7553L191.043 41.0553L191.041 41.4352L190.959 41.5427L190.884 41.9645L190.803 42.2593L190.714 42.4873L190.72 42.7453L190.86 42.9091L190.879 43.0323L190.877 43.0912L190.836 43.0781L190.776 43.1227L190.779 43.3297L190.825 43.5314ZM189.587 40.6073L189.598 40.5549L189.567 40.1946L189.647 39.8697L189.715 39.774L189.821 39.7229L189.952 39.7413L190.015 39.6849L189.928 39.6286L189.798 39.5814L189.724 39.4924L189.559 39.398L189.189 39.6732L189.121 40.0085L189.118 40.2509L189.156 40.3544L189.344 40.6361L189.378 40.6649L189.52 40.7134L189.587 40.6073Z" fill="url(#paint3_linear_14_2)"/>
<path d="M171.546 37.7257L171.406 37.9536L171.292 38.0047L171.171 38.213L171.025 38.3047L170.938 38.479L170.838 38.7842L170.873 38.8012L170.936 38.7934L171.124 38.6598L171.144 38.7502L171.122 39.0895L171.054 39.1183L171.016 39.0462L170.898 38.9139L170.814 38.8615L170.725 38.8746L170.663 39.0227L170.612 39.0213L170.559 38.9178L170.373 38.6729L170.164 38.4554L170.054 38.3663L170.008 38.3519L169.863 38.403L169.919 38.2471L169.999 38.1305L170.006 38.2379L170.19 38.437L170.264 38.4881L170.405 38.4423L170.262 38.3846L170.243 38.3309L170.236 38.2864L170.259 38.234L170.197 37.8802L170.089 37.5907L170.072 37.3968L169.977 37.2488L169.751 36.992L169.48 36.7693L169.519 36.6055L169.504 36.4876L169.434 36.2858L169.291 35.9885L169.13 35.9256L168.869 35.9675L168.757 36.0317L168.672 35.9347L168.673 35.8915L168.569 35.6125L168.398 35.2194L168.511 35.2273L168.567 35.2797L168.586 35.3648L168.682 35.2325L168.711 35.1461L168.682 34.9967L168.582 34.8539L168.494 34.7766L168.454 34.7701L168.23 34.8408L168.139 34.9286L168.086 34.9181L168.089 34.7818L168.129 34.6888L168.2 34.7177L168.224 34.6783L168.048 34.432L167.907 34.3482L167.818 34.2683L167.834 34.2067L167.738 34.1766L167.703 34.2054L167.682 34.2906L167.566 34.3639L167.117 34.3325L167.074 34.322L166.975 34.2146L166.845 34.1674L166.647 33.9774L166.579 33.9408L166.296 33.9067L166.161 33.9342L166.056 34.0325L165.934 34.0757L165.845 34.0823L165.748 34.0574L165.51 33.815L165.146 33.549L164.576 33.2516L164.271 33.1364L164.224 33.1416L164.08 33.2595L163.842 33.3525L163.771 33.3617L163.023 33.3054L162.862 33.3106L162.562 33.3342L162.424 33.3696L161.569 33.4429L161.245 33.4965L161.252 24.3023L162.514 24.2931H178.166L178.17 29.0816L178.163 37.4269L178.127 37.3785L178.121 44.5054L177.956 44.4884L177.845 44.5225L177.742 44.5185L177.504 44.3902L177.259 44.1412L177.093 43.8019L176.928 43.5491L176.826 43.477L176.747 43.4809L176.494 43.1377L176.406 42.9595L176.45 42.8678L176.446 42.7958L176.38 42.6294L176.406 42.4656L176.506 42.3818L176.56 42.2403L176.559 42.0031L176.507 41.8158L176.26 41.2092L175.87 40.6852L175.613 40.4061L175.463 40.283L175.531 40.3052L175.916 40.6446L176.17 40.997L176.278 41.221L176.263 41.0992L176.198 40.9144L176.144 40.8345L175.977 40.6393L175.486 40.1651L175.483 40.0105L175.57 39.9751L175.677 40.0681L175.664 40.2869L175.686 40.317L175.818 40.3026L175.855 40.1507L175.872 39.9188L175.848 39.7524L175.646 39.6515L175.537 39.7602L175.459 39.7838L175.376 39.7799L175.304 39.8113L175.275 39.8821L175.29 39.9279L175.37 39.9541L175.398 39.9882L175.334 40.0707L174.953 40.038L174.853 40.0799L174.769 40.1834L174.692 40.2371L174.183 40.2646L174.067 40.1769L174.152 40.0262L174.339 39.9319L174.555 39.6974L174.595 39.4681L174.578 39.4078L174.592 39.2978L174.661 39.1458L174.614 38.8654L174.647 38.7109L174.635 38.6349L174.549 38.4855L174.323 38.2065L174.245 37.9235L174.066 37.6156L174.032 37.6235L173.947 37.8252L173.984 37.9012L173.964 37.9733L173.83 38.1121L173.78 38.2838L173.761 38.6034L173.583 39.1877L173.582 39.3318L173.478 39.417L173.278 39.3253L173.175 39.2991L173.121 39.3096L172.856 39.4104L172.796 39.5087L172.762 39.531L172.566 39.5008L172.457 39.5978L172.376 39.6279L172.331 39.6057L172.291 39.5375L172.343 39.4524L172.439 39.3567L172.472 39.2742L172.496 39.0305L172.562 38.9323L172.68 38.9794L172.801 38.9467L172.926 38.9388L172.95 38.9781L173.071 39.0331L173.141 38.9951L173.17 38.9231L173.232 38.5117L173.208 38.1907L173.224 37.8724L173.166 37.6562L173.187 37.6274H173.256L173.297 37.5462L173.369 37.3077L173.38 37.1846L173.627 36.8662L173.786 36.709L173.845 36.692L173.869 36.6304L173.823 36.43L173.68 36.1535L173.723 36.0251L173.804 35.9675L173.879 35.9374L173.97 35.9347L174.009 35.9033L173.999 35.8168L173.956 35.7343L173.879 35.7015L173.797 35.3269L173.723 35.1605L173.684 34.9574L173.609 34.8998L173.597 35.1736L173.63 35.1919L173.662 35.2496L173.671 35.429L173.625 35.6727L173.551 35.6766L173.371 35.7343L173.221 35.8994L173.075 36.1915L173.067 36.3317L173.041 36.4103L172.828 36.8125L172.732 36.8937L172.561 36.9003L172.461 36.8387L172.368 36.9776L172.394 36.9959L172.34 37.0536L171.94 37.2671L171.705 37.4532L171.624 37.537L171.616 37.592L171.546 37.7257ZM173.81 40.3694L174.025 40.4284L174.093 40.5227L174.095 40.6144L173.992 40.7074L173.825 40.6249L173.599 40.6079L173.4 40.7022L173.374 40.7389L173.392 40.8594L173.352 40.9L173.167 40.9917L173.03 40.8503L172.844 40.8149L172.792 40.8319L172.776 40.8961L172.736 40.9197L172.569 40.904L172.383 40.9328L172.118 40.9406L172.072 40.8647L171.872 40.697L171.866 40.6354L171.932 40.4389L172.449 40.2843L172.559 40.283L172.692 40.2515L172.97 40.1271L173.265 40.152L173.348 40.2319L173.347 40.3734L173.366 40.3996L173.501 40.4179L173.64 40.4978L173.723 40.5044L173.81 40.3694Z" fill="url(#paint4_linear_14_2)"/>
<path d="M190.263 43.9145L190.092 43.9997L189.884 44.0206L189.202 44.0246L188.965 44.0586L188.733 44.0495L188.472 44.0678L187.985 44.2132L187.696 44.3573L187.389 44.5932L187.151 44.8172L186.926 45.0425L186.583 45.4447L186.448 45.5653L186.132 45.6059L185.823 45.6845L185.713 45.6491L185.584 45.657L185.526 45.6818L185.476 45.7565L185.634 46.0461L185.796 45.9308L185.826 45.8207L185.877 45.8443L185.897 46.3369L185.814 46.443L185.77 46.4653L185.704 46.4338L185.665 46.3749L185.562 46.1037L185.414 45.9164L185.305 45.8692L185.236 45.8915L185.217 45.9478L185.078 45.936L184.963 45.7028L184.997 45.6478L184.953 45.5639L184.828 45.5443L184.731 45.6098L184.659 45.6216L184.601 45.5875L184.389 45.3713L184.413 45.2023L184.537 45.1499L184.587 45.0622L184.488 44.8342L184.43 44.7962L184.163 44.8159L184.104 45.0176L183.846 45.2849L183.722 45.3098L183.664 45.3006L183.467 45.0687H183.635L183.783 45.0019L183.989 44.6351L183.944 44.4661L183.77 44.1949L183.688 44.153L183.557 44.2132L183.368 44.3953L183.137 44.5696L182.938 44.5905L182.914 44.6154L182.922 44.6809L183.116 44.715L183.225 44.677L183.29 44.6285L183.388 44.656L183.409 44.7084L183.393 44.7884L183.32 44.901L183.285 44.9272L183.164 44.8984L182.947 44.9456L182.902 44.9731L182.477 45.2626L182.168 45.6465L182.012 45.6897L181.96 45.7264L181.929 45.8063L181.746 45.9426L181.693 45.9281L181.606 45.8246L181.526 45.7775L181.234 45.6832L181.168 45.615L181.048 45.5404L180.941 45.5259L180.703 45.429L180.325 45.1342L180.105 45.0464L179.95 45.0844L179.924 45.1146L179.796 45.1119L179.659 45.032L179.521 44.9167L179.318 44.8722L179.22 44.8709L179.118 44.8997L179.035 44.9705V45.0268L179.078 45.1119L178.966 45.1434L178.801 45.0622L178.679 44.9128L178.434 44.6809L178.308 44.5971L178.117 44.508L178.122 37.381L178.158 37.4295L178.225 37.495L178.267 37.5068L178.51 37.5251L178.742 37.6339L178.899 37.7308L178.923 37.7649L178.992 37.7282L179.071 37.6182L179.196 37.5697L179.405 37.6247L179.626 37.5788L179.788 37.6535L179.901 37.7321L180.098 38.0649L180.104 38.3112L180.226 38.4252L180.302 38.6282L180.298 38.6623L180.346 38.7186L180.465 38.7422L180.529 38.661L180.574 38.4579L180.599 38.4226L180.68 38.395L180.768 38.454L180.787 38.5012L180.954 38.5693L181.164 38.5837L181.464 38.7488L181.482 38.7763L181.481 38.885L181.447 39.0566L181.485 39.2728L181.55 39.4169L181.655 39.4824L181.769 39.5113L181.824 39.5964L181.791 39.696L181.815 39.7327L181.902 39.7982L181.96 39.7851L182.06 39.8218L182.277 39.9881L182.519 40.1178L182.628 40.2698L182.771 40.3982L182.851 40.4244L182.884 40.4585L182.957 40.6262L183.253 40.976L183.427 41.0781L183.481 41.0925L183.731 41.0218L183.709 40.8436L183.758 40.6628L183.784 40.6314L183.961 40.5855H184.133L184.181 40.6248L184.305 40.6366L184.428 40.5685L184.535 40.5449L184.57 40.5489L184.672 40.6301L184.839 40.7912L184.937 40.8331L185.34 40.9104L185.632 40.9366L185.78 40.8725L185.83 40.82L185.918 40.8083L186.064 40.8305L186.19 40.9301L186.504 41.0297L186.694 41.0428L186.93 40.9589L187.057 40.9471L187.188 40.7821L187.32 40.7598L187.518 40.7978L187.639 40.7506L187.876 40.8528L188.029 40.9511L188.102 41.5301L188.191 41.6454L188.321 41.9127L188.307 42.0398L188.193 42.2389L188.32 42.2494L190.82 43.5202L190.71 43.5909L190.549 43.6053L190.39 43.849L190.263 43.9145ZM184.309 45.1657L184.207 45.1264L184.189 45.0438L184.224 44.9272L184.45 44.9744L184.507 45.0425L184.492 45.0687L184.401 45.07L184.309 45.1657ZM184.306 45.4172L184.258 45.3583L184.189 45.3281L183.971 45.3465L183.975 45.3268L184.074 45.2299L184.205 45.2037L184.243 45.2285L184.318 45.4107L184.306 45.4172Z" fill="url(#paint5_linear_14_2)"/>
<path d="M190.816 18.9998V19.0234L190.903 19.1072L190.83 18.8544L190.738 18.6631L190.739 18.591L190.794 18.4456L190.85 18.3722L190.912 18.3552L190.961 18.3762L191.069 18.5439L191.133 18.726L191.304 18.7967L191.528 18.9513L191.687 19.0247L191.605 18.8295L191.604 18.7142L191.643 18.6343L191.746 18.6526L191.846 18.8033L191.804 18.9002L191.815 18.9749L192.006 19.2487L191.916 19.8605L191.995 20.0256L191.978 20.2457L192.072 20.437L192.186 20.4999L192.291 20.5156L192.332 20.6086L192.428 20.682L192.495 20.8785L192.595 20.9335H192.642L192.708 20.9807L192.858 21.1667L192.954 21.1955L193.029 21.2558L193.007 21.2912L193.016 21.3344L193.055 21.3501L193.124 21.282L193.127 21.1981L193.16 21.1654L193.223 21.1837L193.369 21.354L193.575 21.5388L193.682 21.8624L193.854 22.1453L194.059 22.3039L194.258 22.3825L194.328 22.4637L194.37 22.5646L194.384 22.7519L194.615 23.1384L194.809 23.1974L194.948 23.2065L195.002 23.4371L194.985 23.576L194.928 23.6349L194.936 23.8184L194.967 23.9061L195.014 23.9507L195.057 23.9625L195.132 24.1485L195.335 24.2415L195.34 24.2795L195.272 24.4275L195.18 24.8075L195.206 24.9097L195.241 25.3774L195.28 25.473L195.3 26.0324L195.213 26.0599L195.127 26.1818L195.17 26.3993L195.324 26.5198L195.439 26.6639L195.527 26.9692L195.646 27.1382L195.688 27.2521L195.657 27.4657L195.727 27.6439L195.792 27.7356L195.687 27.822L195.532 27.8823L195.344 27.9177L195.236 28.0618L195.003 28.0461L194.74 28.0736L194.509 28.0225L194.416 27.9268L194.354 27.9177L194.273 27.9858L194.245 28.0592L194.188 28.0985L193.907 28.1915L193.749 28.2701L193.612 28.3788L193.74 28.6697L193.694 28.933L193.424 29.064L193.337 29.0221L193.285 28.9212L193.042 29.0299L192.915 29.292L192.847 29.364L192.778 29.3811L192.747 29.3666L192.69 29.2383L192.673 28.992L192.313 28.6788L191.957 28.5151L191.744 28.5596L191.509 28.5531L191.412 28.4863L191.304 28.3736L191.265 28.3644L191.074 28.388L190.872 28.4666L190.438 28.5046L190.314 28.4679L190.292 28.4207L190.256 28.4142L190.1 28.4574L189.649 28.8439L189.484 29.0522L189.377 29.1059L178.329 29.1046L178.16 29.1086L178.158 24.3214H173.927V9.96924L174.201 10.1946L174.336 10.247L174.613 10.3138L174.829 10.3007L174.896 10.3505L175.116 10.4435L175.352 10.4776L175.536 10.7356L175.566 10.9269L175.638 11.0658L175.705 11.1326L175.813 11.1706L175.955 11.1876L176.094 11.2807L176.208 11.3973L176.487 11.4785L176.583 11.5361L176.72 11.6593L176.776 11.6829L176.935 11.692L177.308 11.6239L177.502 11.5518L177.623 11.4863L177.817 11.3344L177.924 11.2964L177.998 11.1601L178.077 10.8509L178.098 10.6295L178.433 10.1906L178.563 9.89456L178.604 9.6797L178.762 9.26309L178.725 9.01548L178.81 8.4731L179.055 7.90582L179.099 7.72634L178.96 7.34117L178.897 6.92848L178.918 6.80795L178.998 6.59965L179.008 6.43719L178.977 6.32322L178.836 6.1529L178.824 5.97735L178.927 5.54763L179.133 5.14281L179.118 5.07862L179.053 5.00525L178.989 4.75371L179.001 4.71179L179.019 4.67903L179.163 4.58733L179.218 4.52051L179.286 4.32793L179.371 4.35413L179.416 4.43274L179.418 4.54933L179.477 4.64104L179.489 4.57947L179.41 4.34627L179.347 4.30041L179.176 4.04101L179.218 4.00695L179.19 3.98599L179.098 3.97944L179.086 4.0646L179.131 4.12486L179.049 4.15106L178.999 4.12879L179.002 4.09604L179.134 3.8065L179.258 3.63488L179.236 3.5851L179.299 3.40168L179.36 3.30998L179.422 3.28246L179.457 3.4554L179.607 3.42526L179.619 3.38989L179.505 3.27722L179.499 3.21827L179.531 3.05057L179.748 2.42172L179.798 2.10075L179.77 1.8479L179.783 1.81253L179.835 1.77453L180.058 1.73523L180.137 1.62911L180.201 1.46797L180.306 1.46404L180.439 1.52692L180.394 1.59505L180.301 1.68152L180.291 1.81384L180.38 1.69855L180.431 1.70248L180.622 1.86624L180.683 2.00118L180.792 2.44924L180.756 2.62217L180.794 2.91694L180.784 3.08595L180.937 3.2222L181.035 3.23006L181.127 3.18814L181.167 3.20386L181.262 3.30867L181.126 3.53007L181.097 3.65191L181.091 3.81044L181.163 3.8314L181.208 3.81961L181.332 3.88118L181.371 3.92441L181.376 4.07639L181.439 4.14189L181.492 4.14713L181.588 4.2205L181.51 4.4026L181.492 4.55588L181.553 4.58733L181.692 4.57161L181.706 4.60043L181.684 4.91878L181.717 5.21749L181.727 5.26989L181.783 5.32361L181.819 5.40221L181.808 5.53846L181.728 5.87385L181.828 6.13587L181.948 6.26295L181.966 6.49877L182.021 6.69398L182.084 6.83154L182.132 6.88394L182.234 6.93897L182.409 6.94028L182.609 6.78306L183.007 6.59965L183.065 6.46733L183.121 6.48043L183.209 6.61406L183.192 6.75293L183.26 6.93765L183.348 7.04377L183.561 7.12631L183.657 7.13286L183.746 7.33069L184.094 7.48921L184.248 7.61105L184.239 7.69752L184.133 7.88748L184.138 7.97395L184.194 8.06697L184.212 8.1757L184.155 8.34471L184.234 8.50323L184.311 8.76656V9.03251L184.382 9.10457L184.456 9.27881L184.433 9.58014L184.38 9.65481L184.37 9.80678L184.383 9.85002L184.457 9.89718L184.939 10.5038L184.986 10.4645L185.117 10.4422L185.151 10.4841L185.042 10.6924L185.048 10.7383L185.149 10.9112L185.259 11.1719L185.334 11.451L185.36 11.6567L185.334 11.7981L185.355 11.9501L185.346 12.0484L185.216 12.3261L185.226 12.4689L185.512 12.8462L185.684 12.9117L185.673 13.0781L185.61 13.2275L185.591 13.386L185.604 13.4358L185.686 13.5458L185.81 13.6428L185.845 13.7109L186.01 13.8196L186.136 13.8799L186.29 13.8838L186.463 14.0581L186.559 14.062L186.727 14.117L186.822 14.2074L186.983 14.2415L187.235 14.2218L187.255 14.1773L187.192 14.0659L187.272 14.159L187.409 14.4066L187.465 14.6948L187.498 14.7642L187.57 14.8415L187.646 14.8599L187.711 14.8441L187.689 14.7223L187.7 14.6699L187.785 14.6712L187.827 14.7157L187.844 14.8821L187.911 14.9463L187.996 14.983L188.172 14.9751L188.346 15.0262L188.458 15.1625L188.413 15.1808L188.424 15.2214L188.508 15.3249L188.619 15.4167L188.693 15.3839L188.698 15.2948L188.654 15.2542L188.674 15.2018L188.771 15.2385L188.984 15.4311L189.119 15.456L189.167 15.5228L189.257 15.7769L189.31 15.7913L189.353 15.9119L189.274 15.8922L189.206 15.8228L189.149 15.7953L189.08 15.8241L188.976 15.9538L189.063 16.1896L189.234 16.3691L189.335 16.4398L189.486 16.4936L189.673 16.6403L189.749 16.7385L189.735 16.8512L189.784 17.0399L189.855 17.1001L189.909 17.2809L189.99 17.4237L190.07 17.501L190.052 17.7906L190.181 18.2543L190.278 18.4928L190.368 18.6225L190.429 18.6723L190.433 18.8282L190.39 18.8937L190.485 18.8452L190.56 18.7823L190.595 18.7234L190.816 18.9998ZM195.193 24.0018L195.132 23.9887L195.075 23.9114L194.998 23.6297L195.074 23.4437L195.168 23.2851L195.167 23.1502L195.148 23.1161L195.206 22.993L195.353 22.8738L195.418 22.7454L195.43 22.6759L195.415 22.6222L195.331 22.4834L195.304 22.4676L195.357 22.3681L195.478 22.2882L195.489 22.6078L195.522 22.6799L195.589 22.7244L195.604 22.7794L195.259 23.5969L195.197 23.8026L195.218 23.9297L195.193 24.0018ZM175.546 10.2732L175.531 10.1867L175.569 10.0361L175.649 9.92338L175.768 9.83299L176.012 9.80285L176.088 9.76093L176.36 9.80547L176.368 9.89194L176.307 9.92076L176.214 9.94041L176.153 9.89063L176.024 9.94303L176.044 9.98889L175.957 10.1343L175.8 10.1946L175.596 10.2326L175.546 10.2732ZM192.578 20.8706L192.502 20.7986L192.447 20.6767L192.352 20.5903L192.298 20.4671L192.285 20.3597L192.347 20.3453L192.545 20.471L192.572 20.5169L192.663 20.6924L192.68 20.813L192.642 20.8588L192.578 20.8706ZM185.616 12.8436L185.519 12.8056L185.491 12.6694L185.429 12.5842L185.364 12.5528L185.329 12.4873L185.388 12.4728L185.588 12.5672L185.704 12.7375L185.663 12.8187L185.616 12.8436ZM195.652 27.0674L195.627 27.0124L195.635 26.8761L195.689 26.5643L195.744 26.5512L195.841 26.5683L195.748 26.8801L195.718 27.0596L195.652 27.0674ZM195.678 26.4805L195.584 26.2158V26.001L195.705 25.9342L195.736 25.9578L195.663 26.2355L195.678 26.4805ZM179.825 1.55181L179.737 1.47976L179.731 1.38936L179.815 1.33303L179.874 1.32124L179.942 1.42604L179.933 1.47976L179.866 1.49679L179.825 1.55181ZM179.962 0.826017L179.864 0.784093L179.835 0.73693L179.889 0.653083L179.967 0.638672L180.014 0.660944L180.046 0.718588L179.962 0.826017ZM175.94 10.8418L175.9 10.7566L176.044 10.6204L176.117 10.6728L176.14 10.7815L175.974 10.7776L175.94 10.8418Z" fill="url(#paint6_linear_14_2)"/>
<path d="M186.51 54.9156L186.393 54.9745L186.367 54.9156L186.185 54.8867L186.063 54.7937L185.943 54.7675L185.636 54.7518L185.606 54.7308L185.585 54.6745L185.545 54.6627L185.374 54.7151L185.273 54.6811L185.124 54.4439L185.207 54.385L185.363 54.4086L185.439 54.4505L185.546 54.4728L185.548 54.3444L185.448 54.2605L185.394 54.3601L185.019 54.3116L184.987 54.2893L184.833 53.971L184.647 53.6723L184.617 53.6422L184.529 53.6461L184.456 53.5282L184.404 53.4168L184.307 53.0539L184.246 52.9871L184.174 52.9661L184.086 52.3923L184.096 52.2836L184.122 52.2495L184.16 52.3176L184.408 52.5089L184.469 52.7945L184.586 52.4644L184.512 52.412L184.453 52.4172L184.203 52.1395L184.176 52.0609L184.178 51.9456L184.157 51.8591L184.068 51.6744L183.885 51.5001L183.743 51.2473L183.364 50.3079L183.377 50.2411L183.338 50.042L183.295 49.9608L183.269 49.7721L183.383 49.6673L183.386 49.4498L183.472 49.3922L183.787 49.4302L183.972 49.5677L184.195 49.531L184.281 49.6044L184.568 49.6987L185.038 49.9804L185.49 50.1953L185.789 50.2228L185.921 50.1822L186.043 50.2516L186.037 50.1861L186.147 50.0682L186.247 50.0328L186.321 50.0564L186.353 50.1809L186.427 50.2188L186.545 50.2162L186.503 50.156L186.404 50.1337L186.376 50.1062L186.369 50.0158L186.433 49.9568L186.649 49.8586L186.832 49.9201L187.127 49.8599L187.212 49.9372L187.314 49.8756L187.455 49.628L187.486 49.6083L187.576 49.5861L187.61 49.6358L187.757 49.7027L187.806 49.7L187.896 49.6476L187.941 49.5703L187.966 49.4564L187.994 49.4249L188.054 49.4275L188.146 49.4708L188.346 49.6201L188.42 49.7184L188.498 49.8952L188.409 50.2175L188.419 50.3145L188.478 50.3918L188.483 50.5346L188.422 50.7599L188.431 50.9211L188.479 51.0612L188.409 51.4438L188.456 51.863L188.541 52.0032L188.549 52.2207L188.475 52.3268L188.424 52.2836L188.418 52.2377L188.456 52.1892L188.472 52.0635L188.372 51.7923L188.311 51.6914L188.148 52.0189L188.041 52.7958L187.977 52.8613L187.957 52.9714L187.972 53.1705L187.871 53.2766L187.814 53.4705L187.833 53.502L187.894 53.498L187.868 53.4417L187.91 53.4103L188 53.4653L188.036 53.5373L188.044 53.6723L187.99 53.7077L187.968 53.8767L188.044 54.0483L188.031 54.1583L187.996 54.1609L187.896 54.0719L187.794 54.1164L187.741 54.1963L187.611 54.0339L187.519 53.8439L187.501 53.7509L187.579 53.6107L187.624 53.5976L187.658 53.629L187.664 53.6762L187.642 53.7221L187.729 53.8164L187.85 53.8072L187.894 53.7692L187.79 53.5858L187.461 53.3828L187.412 53.3906L187.335 53.4496L187.362 53.5819L187.406 53.6788L187.368 53.7548L187.229 53.8007L187.197 53.7194L187.224 53.7024L187.203 53.5059L187.076 53.4234L187.12 53.536L187.089 53.7378L187.007 53.8387L186.97 53.9802L186.998 54.1164L186.977 54.2435L186.929 54.2749L186.88 54.2684L186.767 54.195L186.664 54.0732L186.645 53.95L186.615 53.9382L186.585 53.9867L186.584 54.1177L186.762 54.2815L186.705 54.4256L186.631 54.5422L186.56 54.7479L186.54 54.8894L186.51 54.9156ZM188.219 48.5432L188.092 48.4725L188.055 48.3336L188.063 48.2943L187.902 47.989L187.701 47.8083L187.872 47.5803L187.993 47.5279L188.272 47.9039L188.324 47.9419L188.432 47.9707L188.444 48.0244L188.51 48.3899L188.505 48.4397L188.466 48.4764L188.288 48.5092L188.219 48.5432ZM182.287 48.2878L182.238 48.2511L182.219 48.1554L182.245 48.1358V48.0074L182.165 47.9013L182.169 47.8004L182.193 47.503L182.304 47.4205L182.321 47.372L182.306 47.2659L182.366 47.2488L182.492 47.3261L182.551 47.4113L182.57 47.7113L182.604 47.9039L182.591 48.0048L182.548 48.1017L182.287 48.2878ZM188.515 48.969L188.511 48.8786L188.487 48.8419L188.159 48.8839L188.033 48.8288L188.036 48.7568L188.129 48.6795L188.226 48.6742L188.324 48.7044L188.522 48.6035L188.714 48.8341L188.711 48.8537L188.614 48.8917L188.515 48.969ZM187.054 54.7112L186.964 54.6693L186.875 54.6889L186.801 54.533L187.05 54.2225L187.141 54.4623L187.079 54.6902L187.054 54.7112ZM187.137 54.2225L187.04 54.0168L187.131 53.857L187.186 53.9435L187.237 54.1806L187.233 54.2029L187.137 54.2225ZM188.058 53.2347L188.065 52.9779L188.146 52.915L188.219 52.9216L188.283 53.0474L188.276 53.067L188.178 53.0683L188.058 53.2347ZM183.651 49.3909L183.626 49.3725L183.62 49.2821L183.704 49.1812L183.831 49.328L183.651 49.3909Z" fill="url(#paint7_linear_14_2)"/>
<path d="M163.919 4.22352V4.17635L163.999 4.07286L163.804 3.94054L163.849 3.83704L163.903 3.80953L164.102 3.81608L164.115 3.77022L164.101 3.64576L164.062 3.56847L164.098 3.51475L164.224 3.5213L164.364 3.61301L164.549 3.62218L164.679 3.71651L164.758 3.7283L165.376 3.68638L165.561 3.74533L165.788 3.58812L165.981 3.59205L166.061 3.74402L166.013 3.84883L166.089 3.77022L166.1 3.73616L166.071 3.56716L166.098 3.51606L166.287 3.44794L166.435 3.50296L166.528 3.4951L166.474 3.48855L166.374 3.41387L166.358 3.34706L166.369 2.93176L166.448 2.80599L166.235 2.64615L166.163 2.54396L166.105 2.50728L165.998 2.48763L165.797 2.52169L165.623 2.61602L165.596 2.6134L165.459 2.47584L165.432 2.38151L165.284 2.30159L165.151 2.31339L165.142 2.29766L165.297 2.11163L165.453 2.03957L165.602 2.18762L165.709 2.44178L165.763 2.44702L165.806 2.36841L165.745 2.17713L165.68 2.05923L165.729 2.04743L165.863 2.09329L165.954 2.04481L166.184 2.23871L166.198 2.30159L166.422 2.58982L166.498 2.60685L166.563 2.55576L166.708 2.33828L166.769 2.34352L166.879 2.46274L167.091 2.84922L167.143 2.89114L167.239 2.91996L167.318 2.86625H167.388L167.46 2.97106L167.66 3.05622L167.756 3.05884L167.825 3.03656L167.961 2.96189L168.013 2.89114L168.166 2.91734L168.182 2.96189L168.084 3.01822L168.062 3.05228L168.069 3.08766L168.113 3.12958L168.214 3.17281L168.292 3.13613L168.334 3.08111L168.366 3.07587L168.557 3.2226L168.54 3.25011L168.56 3.36671L168.587 3.38898L168.817 3.35492L168.89 3.38505L169.024 3.39684L169.14 3.38243L169.244 3.30251L169.383 3.29465L169.524 3.49117L169.702 3.58419L169.824 3.68638L169.977 3.70079L170.032 3.72568L170.024 3.69817L170.081 3.54881L170.168 3.46104L170.241 3.42959L170.322 3.46628L170.532 3.44139L170.639 3.35361L170.607 3.33527L170.526 3.38374L170.512 3.34837L170.542 3.23963L170.672 3.20426L170.768 3.20688L170.947 3.06277L170.942 2.96189L170.994 2.9632L171.042 3.01953L170.999 3.08897L170.759 3.29465L170.819 3.3654L170.656 3.53309L170.65 3.57895L170.677 3.64707L170.743 3.70996L170.815 3.67851L170.836 3.61956L170.951 3.52392L171.147 3.46628L171.028 3.61825L171.076 3.69162L171.18 3.64314L171.204 3.68638L171.091 3.85145L171.13 3.9484L171.172 3.9877L171.23 3.94971L171.337 3.93792L171.356 3.97198L171.454 3.96281L171.529 3.90385L171.628 3.651L171.59 3.60122L171.456 3.61825L171.371 3.58157L171.364 3.54619L171.511 3.39946L171.75 3.23832L171.907 3.2095L171.875 3.31824L171.963 3.56847L172.063 3.7152L172.127 3.71389L172.181 3.67458L172.177 3.64314L172.085 3.60908L172.093 3.58157L172.207 3.55274L172.35 3.62611L172.494 3.82263L172.249 3.99556L172.166 4.09251L172.023 4.3244L171.99 4.49995L171.812 4.43314L171.798 4.53008L171.885 4.69254L171.884 4.83272L171.86 4.97028L171.762 5.11963L171.749 5.07378L171.634 5.11308L171.64 4.85499L171.618 4.83272L171.573 4.8432L171.517 4.99517L171.397 5.10129L171.34 5.10522L171.32 5.04888L171.251 5.02137L171.104 5.07902L171.011 5.15631L170.96 5.24409L170.964 5.2847L171.021 5.32925L170.984 5.4144L170.921 5.46681L170.895 5.63057L170.956 5.81268L171.011 5.84281L171.089 5.82316L171.15 5.75372L171.142 5.86246L171.098 6.01443L171.008 6.1533L170.969 6.41663L170.93 6.49262L170.767 6.60398L170.581 6.84635L170.467 7.04548L170.464 7.1516L170.287 7.27213L170.23 7.27082L170.317 7.52498L170.377 7.61538L170.471 7.6953L170.651 7.7608L170.907 7.92587L171.038 8.0464L171.416 8.24423L171.456 8.2796L171.49 8.45909L171.568 8.5508L171.919 8.7198L172.063 8.84033L172.194 8.98444L172.567 9.00016L172.716 9.07877L173.044 9.31328L173.211 9.38533L173.289 9.38271L173.435 9.43119L173.563 9.49538L173.735 9.7705L173.935 9.94213V24.2943L164.393 24.2956L162.513 24.2943L161.252 24.3035L161.244 10.9928V8.24292V7.46996L161.37 7.51188L161.505 7.62979L161.49 7.89705L161.513 7.92587L161.605 7.81059L161.552 7.45555L161.568 7.42279L161.713 7.46341L161.895 7.55643L162.186 7.88395L162.198 7.9547L162.276 7.92456L162.179 7.79748L162.128 7.68875L162.109 7.58001L162.141 7.51843L162.156 7.42017L162.373 7.45817L162.463 7.42804L162.576 7.31799L162.324 7.3979L162.196 7.31537L162.095 7.18174L162.072 7.11361L162.124 7.08741L162.235 7.07562L162.328 7.01011L162.333 6.97867L162.174 7.03238L162.005 7.00094L161.886 6.93151L161.75 6.80049L161.766 6.6839L161.851 6.52144L161.938 6.40484L162.277 6.18999L162.354 5.82578L162.346 5.75896L162.412 5.49563L162.512 5.39082L162.525 5.48253L162.574 5.51135L162.711 5.48646L162.884 5.36855L163.025 5.21789L163.011 5.16417L162.922 5.04233L162.874 5.00172L162.826 4.99124L162.815 4.9598L162.828 4.70302L162.851 4.63882L162.909 4.61262L162.929 4.6493L162.971 4.66895L163.024 4.65716L163.115 4.59166L163.151 4.51174L163.138 4.31916L163.152 4.27068L163.371 4.17242L163.501 4.32178L163.625 4.31261L163.506 4.27723L163.465 4.12395L163.503 4.03093L163.513 3.91564L163.471 3.88289L163.539 3.85407L163.74 3.91826L163.919 4.22352ZM164.007 3.2095L163.869 3.09421L163.611 2.98678L163.351 2.78109L163.246 2.50204L163.171 2.22037L163.181 2.11425L163.211 2.09067L163.407 2.2636L163.465 2.35924L163.651 2.41819L163.849 2.37103L163.925 2.29897L164.073 2.36317L164.238 2.23478L164.281 2.23085L164.31 2.32911L164.382 2.43392L164.389 2.39723L164.341 2.27539L164.358 2.20334L164.451 2.12866L164.658 2.21251L164.814 2.4195L164.825 2.52824L164.466 2.90948L164.42 2.91603L164.246 3.0287L164.007 3.2095ZM172.397 6.45987L172.419 6.42318L172.48 6.41925L172.444 6.60267L172.37 6.63149L172.175 6.57909L172.007 6.60398L171.649 6.51358L171.698 6.26335L171.688 6.15592L171.72 6.03408L171.76 5.96465L171.951 5.92796L171.997 5.89259L171.957 5.80088L172.075 5.70132L172.136 5.70525L172.125 5.77206L172.071 5.81006L172.123 5.96203L172.257 5.98561L172.303 5.93583L172.289 5.88604L172.315 5.85067L172.362 5.83757L172.403 5.8677L172.414 5.92141L172.275 6.06553L172.201 6.114L172.114 6.30921L172.116 6.44415L172.157 6.47952L172.345 6.50834L172.397 6.45987ZM163.35 3.06408L163.116 2.97368L162.79 3.05753L162.712 3.0418L162.69 3.00643L162.68 2.96844L162.758 2.82564L162.822 2.86494L162.876 2.86756L162.928 2.81647L162.924 2.61602L162.9 2.55445L163.016 2.35138L163.141 2.32518L163.349 2.84922L163.449 2.87542L163.554 2.97106L163.521 3.04311L163.35 3.06408ZM171.825 2.51252L171.831 2.44571L172.021 2.16665L172.142 1.92035L172.206 1.88629L172.137 2.15355L171.907 2.47846L171.876 2.50728L171.825 2.51252ZM166.315 2.35138L166.274 2.30684L166.224 2.16927L166.183 1.92952L166.291 1.8876L166.358 2.11163L166.356 2.25312L166.315 2.35138ZM172.602 8.87439L172.522 8.81413L172.433 8.68181L172.459 8.60582L172.54 8.5259L172.603 8.60582L172.657 8.78006L172.62 8.87308L172.602 8.87439ZM171.399 5.99478L171.403 5.94238L171.358 5.86246L171.321 5.88735L171.343 5.95679H171.284L171.262 5.92928L171.275 5.80744L171.398 5.70918L171.458 5.71966L171.52 5.80482L171.501 5.89783L171.454 5.97382L171.399 5.99478ZM171.373 2.85053V2.78371L171.502 2.68022L171.608 2.67497L171.795 2.52824L171.782 2.6003L171.641 2.70904L171.373 2.85053ZM171.855 8.60451L171.819 8.58617L171.847 8.46302L171.928 8.40799L171.968 8.42633L171.944 8.58748L171.855 8.60451Z" fill="url(#paint8_linear_14_2)"/>
<path d="M140.432 24.297L140.457 24.2485L140.458 24.0559L140.143 23.7192L139.975 23.4022L139.822 23.0105L139.672 22.9188L139.545 22.5545L139.533 22.4851L139.549 22.3436L139.462 22.1982L139.284 21.9886L139.233 21.8392L139.226 21.5314L139.283 21.382L139.314 21.1907L139.435 20.7977L139.532 20.6012L139.732 20.4427L139.767 20.3103L139.787 20.1335L139.755 19.9291L139.837 19.6776L139.822 19.5282L139.745 19.3147L139.629 19.1496L139.609 19.0251L139.811 18.6111L140 18.0648L140.136 17.8604L140.219 17.8133L140.323 17.7949L140.341 17.8316L140.271 17.9652L140.202 18.3674L140.293 18.5613L140.249 18.8443L140.31 18.9072L140.618 18.7762L140.657 18.6124L140.743 18.391L140.975 17.9836L141.012 17.8578L141.423 17.6272L141.578 17.6154L141.849 17.4792L142.14 17.3665L142.377 17.0849L142.462 17.018L142.64 16.9407L142.808 16.6866L143.139 16.5307L143.176 16.4337L143.265 16.3839L143.351 16.3735L143.585 16.2896L143.769 16.1743L143.912 16.0525L144.026 16.0774L144.087 16.139L144.15 16.156L144.419 16.0106L144.558 16.059L144.603 16.1114L144.702 16.156L144.807 16.1756L144.897 16.1743L145.29 16.0931L145.523 15.9909L145.832 15.6909L145.986 15.5979L146.006 15.6359L146.066 15.6372L146.503 15.5638L146.662 15.573L146.865 15.5049L147.075 15.2507L147.117 15.1367L147.258 15.028L147.411 15.0136L147.757 15.1L147.965 15.1813L148.252 15.0319L148.892 14.9376L149.03 14.8917L149.794 14.5708L150.004 14.4607L150.356 14.1646L150.655 13.7572L150.868 13.2947L151.063 13.0301L151.046 12.9096L151.096 12.7969L151.13 12.7641L151.222 12.7864L151.293 12.7484L151.396 12.6646L151.472 12.5532L151.559 12.51L151.854 12.2755L151.897 12.1707L151.889 12.0894L151.847 12.0501L151.736 12.0187L151.672 11.923L151.656 11.6427L151.573 11.4252L151.577 11.1357L151.621 10.9588L151.737 10.7584L151.91 10.5933L152.006 10.5317L152.185 10.5304L152.114 10.3693L152.173 10.288L152.212 10.2723L152.243 10.3024H152.277L152.436 10.2474L152.45 10.2055L152.414 10.1518L152.447 10.009L152.488 9.96313L152.562 9.94741L152.636 9.86487L152.643 9.78364L152.673 9.73517L152.773 9.69849L152.869 9.79543L152.84 9.83343L152.769 9.82557L152.723 9.98933L152.812 10.1125L152.92 10.1806L152.949 10.2933L153.219 10.8029L153.566 11.3623L153.597 11.4842L153.623 11.3545L153.575 11.2601L153.58 11.1435L153.658 10.9051L153.594 10.7086L153.62 10.5959L153.71 10.5933L153.889 10.8121L153.993 10.9064L154.044 10.9287L154.079 10.909L154.024 10.8828L153.959 10.8016L153.909 10.5972L154.042 10.4426L153.996 10.4177L153.888 10.4505L153.866 10.4348L153.797 10.2867L153.642 10.1177L153.65 9.95658L153.492 9.9592L153.384 9.86094L153.48 9.85701L153.688 9.90417L153.784 9.75744L153.796 9.68145L153.781 9.62381L153.624 9.59237L153.573 9.54651L153.57 9.41681L153.589 9.37489L153.809 9.32642L153.922 9.4155L153.89 9.48494L153.818 9.50459L153.968 9.66442L154.042 9.68014L154.045 9.6225L154.146 9.48363L154.318 9.50852L154.393 9.54258L154.431 9.56748L154.481 9.68931L154.52 9.71683L154.666 9.72469L154.739 9.64084L154.867 9.70373L155.013 9.71814L155.224 9.688L155.375 9.75482L155.456 9.72076L155.347 9.71028L155.18 9.63167L155.065 9.60416L154.991 9.59892L154.875 9.63298H154.788L154.763 9.60678L154.728 9.44826L154.805 9.2727L154.862 9.2596L154.93 9.3631L155.035 9.28973L155.024 9.15479L155.066 9.00151L155.224 8.84037L155.145 8.80761L155.069 8.82989L154.954 9.0264L154.888 9.02771L154.765 8.92028L154.724 8.63206L154.845 8.35301L154.889 8.33336L155.021 8.40934L155.126 8.35432L155.15 8.31763L155.135 8.03596L155.195 8.02155L155.487 8.17221L155.601 8.28357L155.866 8.41327L155.718 8.28095L155.71 8.2482L155.778 8.12374L155.748 8.0923L155.627 8.09099L155.487 8.14339L155.471 8.05954L155.523 7.98618L155.578 7.95998L155.618 7.98618L155.674 7.88923L155.63 7.87744L155.445 8.00059L155.406 7.99928L155.365 7.88792L155.41 7.82897L155.471 7.80014L155.554 7.82504L155.584 7.81586L155.658 7.76346L155.637 7.71368L155.722 7.65341L155.819 7.87482L155.844 7.89054L155.858 7.82766L155.84 7.70189L156.006 7.80014L156.01 7.85255L156.066 7.88006L156.197 7.87351L156.226 7.846L156.201 7.82504L156.158 7.82897L156.121 7.7949L156.162 7.75429L156.009 7.64424L155.87 7.57481L155.917 7.51978L155.954 7.50668L155.804 7.28134L155.956 7.06255L156.087 6.95251L156.161 6.98395L156.444 6.9905L156.458 6.81232L156.431 6.6407L156.449 6.54244L156.486 6.51493L156.642 6.58961L156.519 7.11103L156.545 7.08352L156.632 6.78088L156.803 6.86866L156.777 7.02587L156.804 7.07697L156.887 7.12937L157.012 6.98919L157.078 6.94202L157.118 6.69179L157.226 6.47039L157.231 6.37868L157.139 6.14024L157.049 6.0826L157.12 6.06687L157.233 6.08391L157.33 6.13369L157.318 6.24374L157.246 6.27518L157.294 6.43501L157.353 6.45205L157.429 6.52934L157.465 6.4717L157.439 6.3944L157.495 6.26339L157.633 6.15334L157.733 6.13893L157.666 6.30269L157.826 6.511L157.872 6.5241L158.017 6.36951L158.138 6.1481L158.077 5.89132L158.235 5.82713L158.373 5.79437L158.46 5.86512L158.541 5.96993L158.516 6.02495L158.616 6.14941L158.651 6.09308L158.652 6.04591L158.776 6.04067L159.034 6.12452L159.169 6.3171L159.363 6.44812L159.785 7.04028L159.846 7.01015L160.085 7.21715L160.111 7.35995L160.043 7.45821L159.943 7.79883L159.958 7.95343L159.949 8.23248L159.875 8.38183L159.942 8.34253L159.981 8.2875L160.03 7.96522L160.101 7.99404L160.207 8.10016L160.249 8.23903L160.255 8.09754L160.16 7.93115L160.115 7.74774L160.276 7.52502L160.305 7.53026L160.342 7.71761L160.476 7.72154L160.49 7.65472L160.434 7.55253L160.39 7.35995L160.599 7.29968L161.254 7.46476V8.23772V10.9876L161.262 24.297L161.245 33.4965L160.953 33.6249L160.616 33.8228L160.093 34.0625L159.853 34.1595L159.465 34.2354L158.898 34.4568L158.602 34.5093L157.985 34.5381L157.579 34.4988L157.269 34.4084L157.113 34.4857L156.977 34.4555L156.743 34.5839L156.332 34.9246L156.232 34.9691L156.032 35.0123L155.6 35.2534L155.436 35.4014L155.249 35.5154L154.765 35.5953L154.594 35.6635L154.465 35.7709L154.346 35.9229L154.2 36.3526L154.133 36.6342L153.998 36.7299L153.871 36.8648L153.823 36.9618L153.822 37.0076L153.759 37.0771L153.548 37.2225L153.305 37.2041L153.268 37.2185L153.184 37.3338L153.119 37.3836L153.023 37.4151L152.928 37.1897L152.811 37.1399L152.567 37.2238L152.404 37.2002L152.212 37.2081L152.186 37.2343L151.985 37.2552L151.873 37.233L151.794 37.2644L151.743 37.3234L151.728 37.4098L151.541 37.4295L151.486 37.4111L151.516 37.3469L151.474 37.1989L151.393 37.0928L151.364 37.0823L151.255 37.1019L151.177 37.1766L151.063 37.2094L150.699 37.0771L150.612 37.0705L150.435 37.0666L150.034 37.1373H149.768L149.668 37.191L149.313 37.2408L149.139 37.3378L148.908 37.2788L148.558 37.2605L148.288 37.3443L148.184 37.4596L148.011 37.5526L147.937 37.6378L147.821 37.8448L147.801 37.9496L147.601 38.1474L147.436 38.2457L147.253 38.1802L147.017 38.1579L146.774 38.3243L146.745 38.3675L146.794 38.4225L146.745 38.4789L146.631 38.5496L146.403 38.6243L146.32 38.7108L146.277 38.8247L146.128 38.9374L145.846 39.0894L145.502 39.1523L145.497 39.1876L145.531 39.2243L145.725 39.2676L145.638 39.3173L145.532 39.2977L145.427 39.2138L145.346 39.1837L145.258 39.1889L145.214 39.2204L145.181 39.3396L145.073 39.2531L144.79 39.1326L144.251 39.13L144.177 39.1994L144.145 39.2007L143.935 39.1326L143.763 39.1601L143.563 39.1025L143.22 38.8719L142.877 38.792L142.792 38.5915L142.652 38.4278L142.418 38.1867L142.204 38.0426L141.948 37.9077L141.845 37.8959L141.743 37.9208L141.678 38.0059L141.518 37.8343L141.519 37.6863L141.445 37.157L141.44 36.8609L141.501 36.5753L141.561 36.5923L141.648 36.7233L141.816 36.7954L141.949 36.7836L142.064 36.7417L142.11 36.7142L142.509 36.1351L142.448 35.6582L142.343 35.1342L142.375 35.0202L142.483 34.8853L142.478 34.939L142.398 35.0294L142.395 35.0975L142.452 35.2612L142.491 35.3202L142.517 35.3019L142.514 35.2102L142.579 34.9691L142.538 34.5472L142.57 34.3311L142.546 34.1699L142.553 33.8332L142.5 33.5385L142.466 33.4454L142.122 32.8127L142.025 32.5192L141.943 32.3279L141.742 31.9742L141.571 31.5353L141.582 31.4908L141.538 31.158L141.444 30.8331L141.416 30.8082L141.422 30.1728L141.473 29.8754L141.403 29.6278L141.366 29.5688L141.344 29.4169L141.27 29.24L140.966 28.8758L140.927 28.7566L140.917 28.4919L140.802 28.2587L140.527 27.8434L140.421 27.7779L140.311 27.6207L140.227 27.2369L140.245 27.1176L140.292 27.0063L140.265 26.8399L140.196 26.5975L140.004 26.1953L139.809 25.8272L139.507 25.3883L139.077 24.9271L138.998 24.6743L139.063 24.5433L139.054 24.3979L139.059 24.3599L139.087 24.3402L139.11 24.6468L139.153 24.7359L139.197 24.4843L139.406 24.745L139.435 24.8302L139.452 25.0988L139.484 25.1957L139.588 25.3293L139.632 25.3385L139.636 25.2979L139.727 25.235L139.787 25.2494L139.888 25.0975L139.896 24.8276L139.794 24.6913L139.601 24.5629L139.458 24.4136L139.376 24.073L139.233 23.8398L139.258 23.7101L139.344 23.5725L139.384 23.6026L139.515 23.8411L139.665 23.9708L139.717 24.1188L139.683 24.3048L139.644 24.3481L139.648 24.4817L139.689 24.6035L139.761 24.6101L139.809 24.5577L139.922 24.3376L139.996 24.707L140.035 24.8079L140.191 25.0189L140.367 24.8787L140.405 24.7516L140.362 24.69L140.335 24.5787L140.383 24.2734L140.432 24.297ZM138.974 24.5236L138.932 24.4896L138.723 24.1699L138.618 23.9564L138.553 23.7101L138.562 23.5725L138.618 23.4913L138.688 23.5083L138.659 23.5777L138.664 23.621L138.831 24.1005L138.974 24.3625L139.002 24.466L138.974 24.5236ZM154.931 8.30977L154.919 8.26916L154.844 8.19842L154.856 8.13291L154.891 8.07658L154.983 8.03858L155.105 8.24427L154.931 8.30977ZM142.023 16.401L141.975 16.3604L141.94 16.3944L141.93 16.3826L141.931 16.3027L142.075 16.1062L142.122 16.0774L142.139 16.0866L142.159 16.1901L142.152 16.2359L142.07 16.3643L142.023 16.401ZM155.8 7.14378L155.726 7.10317L155.735 6.99181L155.767 6.90796L155.834 6.83853L155.899 6.91189L155.866 7.07172L155.815 7.09662L155.8 7.14378Z" fill="url(#paint9_linear_14_2)"/>
<path d="M189.507 40.7035L189.344 40.6196L189.157 40.3379L189.119 40.2344L189.121 39.9934L189.189 39.658L189.559 39.3829L189.724 39.4772L189.798 39.565L189.928 39.6134L190.015 39.6698L189.952 39.7274L189.82 39.7091L189.715 39.7602L189.648 39.8545L189.567 40.1807L189.598 40.541L189.588 40.5921L189.507 40.7035Z" fill="url(#paint10_linear_14_2)"/>
<path d="M190.825 43.5161L188.325 42.2453L188.198 42.2348L188.312 42.0357L188.326 41.9086L188.196 41.6413L188.107 41.526L188.034 40.947L187.881 40.8487L187.644 40.7465L187.523 40.7937L187.325 40.7557L187.193 40.778L187.062 40.9431L186.935 40.9548L186.699 41.0387L186.509 41.0256L186.195 40.926L186.069 40.8265L185.923 40.8042L185.835 40.816L185.785 40.8684L185.637 40.9326L185.345 40.9064L184.942 40.8291L184.844 40.7872L184.677 40.626L184.575 40.5448L184.54 40.5409L184.433 40.5644L184.31 40.6326L184.186 40.6208L184.138 40.5815H183.966L183.789 40.6273L183.763 40.6588L183.714 40.8396L183.736 41.0177L183.486 41.0885L183.432 41.0741L183.258 40.9719L182.962 40.6221L182.889 40.4544L182.856 40.4203L182.776 40.3941L182.633 40.2657L182.524 40.1138L182.282 39.9841L182.065 39.8177L181.965 39.781L181.907 39.7941L181.82 39.7286L181.796 39.6919L181.829 39.5923L181.774 39.5072L181.66 39.4784L181.555 39.4129L181.49 39.2687L181.452 39.0526L181.486 38.8809L181.487 38.7722L181.469 38.7447L181.169 38.5796L180.959 38.5652L180.792 38.4971L180.773 38.4499L180.685 38.391L180.604 38.4185L180.579 38.4539L180.534 38.6569L180.47 38.7381L180.351 38.7146L180.303 38.6582L180.307 38.6242L180.231 38.4211L180.109 38.3071L180.103 38.0608L179.906 37.7281L179.793 37.6495L179.631 37.5748L179.41 37.6206L179.201 37.5656L179.076 37.6141L178.997 37.7241L178.928 37.7608L178.904 37.7267L178.747 37.6298L178.515 37.5211L178.272 37.5027L178.23 37.4909L178.163 37.4254L178.17 29.0801L178.337 29.0787L181.169 29.0801H183.366H185.155H189.381L189.489 29.0263L189.654 28.818L190.104 28.4316L190.26 28.3883L190.297 28.3949L190.319 28.442L190.442 28.4787L190.876 28.4407L191.079 28.3621L191.27 28.3385L191.308 28.3477L191.416 28.4604L191.514 28.5272L191.749 28.5337L191.962 28.4892L192.318 28.653L192.678 28.9661L192.694 29.2124L192.752 29.3408L192.783 29.3552L192.852 29.3381L192.919 29.2661L193.046 29.0041L193.289 28.8953L193.341 28.9962L193.428 29.0381L193.699 28.9071L193.744 28.6438L193.617 28.3529L193.753 28.2442L193.912 28.1656L194.192 28.0726L194.249 28.0333L194.278 27.9599L194.358 27.8918L194.421 27.901L194.513 27.9966L194.744 28.0477L195.008 28.0202L195.24 28.0359L195.348 27.8918L195.537 27.8564L195.691 27.7962L195.796 27.7097L195.898 27.8027L195.917 27.9088L195.872 28.2586L195.898 28.442L195.963 28.5311L195.937 28.856L195.714 29.1495L195.559 29.6106L195.598 29.7246L195.44 30.6273L195.372 30.8919L195.109 31.6361L195.091 32.075L195.113 32.1549L195.162 32.1614L195.187 32.2623L195.043 32.7497L195.016 32.9422L194.868 33.4362L194.743 33.6929L194.457 34.0571L194.392 34.2275L194.434 34.4489L194.417 34.6834L194.171 34.893L194.066 35.0161L193.849 35.1524L193.838 35.2244L193.873 35.3004L193.602 35.3961L193.404 35.4996L193.202 35.8048L193.069 36.1389L193.037 36.1651L192.966 36.1703L192.9 36.2241L192.885 36.3014L192.945 36.3551L192.9 36.5372L192.739 36.7547L192.678 37.2132L192.644 37.3363L192.593 37.3756L192.511 37.3665L192.401 37.411L192.479 37.432L192.536 37.4857L192.422 37.673L192.294 37.7687L192.168 37.956L192.036 38.3451L192.093 38.4159L192.023 38.7381L191.932 38.7958L191.903 38.8954L191.953 39.0408L192.051 39.1443L192.029 39.2596L191.992 39.2923L191.945 39.2412L191.962 39.2059L191.942 39.1259L191.905 39.122L191.815 39.1783L191.805 39.236L191.841 39.3251L191.762 39.4142L191.611 39.498L191.535 39.6434L191.527 39.7168L191.423 40.0207L191.351 40.1373L191.079 40.74L191.044 41.04L191.041 41.4199L190.959 41.5274L190.884 41.9492L190.803 42.244L190.714 42.4719L190.72 42.73L190.86 42.8938L190.879 43.0169L190.877 43.0759L190.836 43.0628L190.776 43.1073L190.779 43.3143L190.825 43.5161ZM189.587 40.5919L189.598 40.5395L189.567 40.1793L189.647 39.8544L189.715 39.7587L189.821 39.7076L189.952 39.726L190.015 39.6696L189.928 39.6133L189.798 39.5661L189.724 39.477L189.559 39.3827L189.189 39.6578L189.121 39.9932L189.119 40.2356L189.156 40.3391L189.345 40.6208L189.378 40.6496L189.52 40.6981L189.587 40.5919Z" fill="url(#paint11_linear_14_2)"/>
<path d="M171.546 37.7257L171.406 37.9536L171.291 38.0047L171.171 38.213L171.025 38.3047L170.938 38.479L170.838 38.7842L170.873 38.8013L170.936 38.7934L171.124 38.6598L171.143 38.7502L171.121 39.0895L171.054 39.1183L171.016 39.0462L170.898 38.9139L170.813 38.8615L170.725 38.8746L170.663 39.0227L170.612 39.0213L170.559 38.9178L170.373 38.6729L170.164 38.4554L170.054 38.3663L170.008 38.3519L169.863 38.403L169.919 38.2471L169.999 38.1305L170.006 38.2379L170.19 38.437L170.264 38.4881L170.404 38.4423L170.261 38.3846L170.243 38.3309L170.235 38.2864L170.259 38.234L170.196 37.8802L170.089 37.5907L170.072 37.3968L169.977 37.2488L169.751 36.992L169.479 36.7693L169.518 36.6055L169.504 36.4876L169.434 36.2858L169.291 35.9885L169.13 35.9256L168.869 35.9675L168.757 36.0317L168.672 35.9347L168.673 35.8915L168.569 35.6125L168.397 35.2194L168.51 35.2273L168.566 35.2797L168.586 35.3648L168.682 35.2325L168.711 35.1461L168.682 34.9967L168.582 34.8539L168.494 34.7766L168.453 34.7701L168.23 34.8408L168.139 34.9286L168.086 34.9181L168.088 34.7819L168.129 34.6888L168.2 34.7177L168.223 34.6784L168.048 34.4321L167.906 34.3482L167.818 34.2683L167.834 34.2067L167.738 34.1766L167.703 34.2054L167.682 34.2906L167.566 34.3639L167.117 34.3325L167.074 34.322L166.975 34.2146L166.845 34.1674L166.647 33.9774L166.579 33.9408L166.296 33.9067L166.161 33.9342L166.055 34.0325L165.933 34.0757L165.845 34.0823L165.748 34.0574L165.51 33.815L165.146 33.549L164.576 33.2516L164.271 33.1364L164.224 33.1416L164.08 33.2595L163.842 33.3525L163.771 33.3617L163.022 33.3054L162.861 33.3106L162.561 33.3342L162.424 33.3696L161.569 33.4429L161.244 33.4966L161.252 24.3023L162.513 24.2932L164.393 24.2945L173.935 24.2932H178.165L178.169 29.0816L178.163 37.4269L178.126 37.3785L178.121 44.5054L177.956 44.4884L177.845 44.5225L177.742 44.5185L177.504 44.3902L177.259 44.1412L177.093 43.8019L176.928 43.5491L176.826 43.477L176.747 43.4809L176.494 43.1377L176.405 42.9595L176.45 42.8678L176.446 42.7958L176.379 42.6294L176.405 42.4656L176.505 42.3818L176.56 42.2403L176.559 42.0031L176.507 41.8158L176.26 41.2092L175.87 40.6852L175.613 40.4061L175.462 40.283L175.531 40.3053L175.916 40.6446L176.17 40.997L176.278 41.221L176.262 41.0992L176.198 40.9145L176.144 40.8345L175.977 40.6393L175.486 40.1651L175.483 40.0105L175.57 39.9751L175.677 40.0681L175.664 40.2869L175.686 40.317L175.818 40.3026L175.855 40.1507L175.872 39.9188L175.848 39.7524L175.646 39.6515L175.536 39.7603L175.458 39.7838L175.375 39.7799L175.304 39.8113L175.275 39.8821L175.29 39.9279L175.37 39.9541L175.397 39.9882L175.334 40.0707L174.953 40.038L174.853 40.0799L174.769 40.1834L174.692 40.2371L174.183 40.2646L174.067 40.1769L174.152 40.0262L174.339 39.9319L174.554 39.6974L174.595 39.4681L174.578 39.4078L174.592 39.2978L174.661 39.1458L174.614 38.8654L174.647 38.7109L174.635 38.6349L174.549 38.4855L174.323 38.2065L174.245 37.9235L174.066 37.6156L174.032 37.6235L173.946 37.8252L173.984 37.9012L173.963 37.9733L173.83 38.1121L173.78 38.2838L173.761 38.6034L173.583 39.1877L173.582 39.3318L173.478 39.417L173.278 39.3253L173.175 39.2991L173.12 39.3096L172.855 39.4104L172.796 39.5087L172.762 39.531L172.566 39.5008L172.457 39.5978L172.376 39.6279L172.331 39.6057L172.29 39.5375L172.342 39.4524L172.438 39.3567L172.472 39.2742L172.496 39.0305L172.562 38.9323L172.68 38.9794L172.801 38.9467L172.926 38.9388L172.95 38.9781L173.071 39.0331L173.141 38.9951L173.17 38.9231L173.232 38.5117L173.207 38.1907L173.224 37.8724L173.166 37.6562L173.187 37.6274H173.255L173.297 37.5462L173.368 37.3077L173.38 37.1846L173.627 36.8662L173.785 36.709L173.845 36.692L173.869 36.6304L173.823 36.43L173.68 36.1535L173.723 36.0251L173.804 35.9675L173.879 35.9374L173.97 35.9347L174.009 35.9033L173.998 35.8168L173.956 35.7343L173.879 35.7015L173.797 35.3269L173.723 35.1605L173.684 34.9574L173.609 34.8998L173.597 35.1736L173.63 35.1919L173.662 35.2496L173.671 35.429L173.624 35.6727L173.55 35.6767L173.371 35.7343L173.22 35.8994L173.075 36.1915L173.067 36.3317L173.041 36.4103L172.828 36.8125L172.732 36.8937L172.561 36.9003L172.461 36.8387L172.368 36.9776L172.394 36.9959L172.34 37.0536L171.94 37.2671L171.705 37.4532L171.624 37.537L171.616 37.592L171.546 37.7257ZM173.81 40.3694L174.024 40.4284L174.093 40.5227L174.095 40.6144L173.992 40.7075L173.824 40.6249L173.598 40.6079L173.4 40.7022L173.374 40.7389L173.392 40.8594L173.352 40.9L173.167 40.9917L173.029 40.8503L172.844 40.8149L172.792 40.8319L172.776 40.8961L172.736 40.9197L172.568 40.904L172.383 40.9328L172.118 40.9407L172.072 40.8647L171.872 40.697L171.866 40.6354L171.932 40.4389L172.449 40.2843L172.559 40.283L172.692 40.2515L172.97 40.1271L173.265 40.152L173.348 40.2319L173.346 40.3734L173.366 40.3996L173.501 40.4179L173.64 40.4978L173.723 40.5044L173.81 40.3694Z" fill="url(#paint12_linear_14_2)"/>
<path d="M190.263 43.9145L190.092 43.9997L189.884 44.0206L189.202 44.0246L188.965 44.0586L188.733 44.0494L188.472 44.0678L187.985 44.2132L187.696 44.3573L187.388 44.5931L187.151 44.8172L186.926 45.0425L186.583 45.4447L186.448 45.5652L186.132 45.6058L185.823 45.6845L185.713 45.6491L185.584 45.6569L185.526 45.6818L185.476 45.7565L185.634 46.046L185.796 45.9308L185.826 45.8207L185.877 45.8443L185.897 46.3369L185.814 46.443L185.77 46.4653L185.704 46.4338L185.665 46.3749L185.562 46.1037L185.414 45.9163L185.305 45.8692L185.236 45.8915L185.217 45.9478L185.078 45.936L184.963 45.7028L184.997 45.6478L184.953 45.5639L184.828 45.5443L184.731 45.6098L184.659 45.6216L184.601 45.5875L184.389 45.3713L184.413 45.2023L184.537 45.1499L184.587 45.0622L184.488 44.8342L184.429 44.7962L184.163 44.8159L184.103 45.0176L183.846 45.2849L183.722 45.3098L183.664 45.3006L183.467 45.0687H183.635L183.783 45.0019L183.989 44.6351L183.944 44.4661L183.77 44.1949L183.688 44.1529L183.557 44.2132L183.368 44.3953L183.137 44.5696L182.938 44.5905L182.914 44.6154L182.921 44.6809L183.116 44.715L183.225 44.677L183.29 44.6285L183.388 44.656L183.409 44.7084L183.393 44.7883L183.32 44.901L183.285 44.9272L183.164 44.8984L182.947 44.9456L182.902 44.9731L182.477 45.2626L182.168 45.6465L182.012 45.6897L181.96 45.7264L181.929 45.8063L181.746 45.9425L181.693 45.9281L181.606 45.8246L181.526 45.7775L181.234 45.6831L181.168 45.615L181.048 45.5403L180.941 45.5259L180.703 45.429L180.325 45.1342L180.105 45.0464L179.949 45.0844L179.924 45.1146L179.796 45.1119L179.659 45.032L179.521 44.9167L179.318 44.8722L179.219 44.8709L179.118 44.8997L179.035 44.9704V45.0268L179.078 45.1119L178.966 45.1434L178.801 45.0622L178.679 44.9128L178.434 44.6809L178.308 44.5971L178.117 44.508L178.122 37.381L178.158 37.4295L178.225 37.495L178.267 37.5068L178.51 37.5251L178.741 37.6339L178.899 37.7308L178.923 37.7649L178.992 37.7282L179.071 37.6181L179.196 37.5697L179.405 37.6247L179.626 37.5788L179.788 37.6535L179.901 37.7321L180.098 38.0649L180.104 38.3112L180.226 38.4252L180.302 38.6282L180.298 38.6623L180.346 38.7186L180.465 38.7422L180.529 38.661L180.574 38.4579L180.599 38.4225L180.679 38.395L180.768 38.454L180.787 38.5011L180.954 38.5693L181.164 38.5837L181.464 38.7488L181.482 38.7763L181.481 38.885L181.447 39.0566L181.485 39.2728L181.55 39.4169L181.655 39.4824L181.769 39.5112L181.824 39.5964L181.791 39.696L181.815 39.7326L181.902 39.7982L181.96 39.7851L182.06 39.8217L182.277 39.9881L182.519 40.1178L182.628 40.2698L182.771 40.3982L182.851 40.4244L182.884 40.4584L182.957 40.6261L183.253 40.9759L183.427 41.0781L183.481 41.0925L183.731 41.0218L183.709 40.8436L183.758 40.6628L183.784 40.6314L183.961 40.5855H184.133L184.181 40.6248L184.305 40.6366L184.428 40.5685L184.535 40.5449L184.57 40.5488L184.672 40.6301L184.839 40.7912L184.937 40.8331L185.34 40.9104L185.632 40.9366L185.78 40.8724L185.83 40.82L185.918 40.8082L186.064 40.8305L186.19 40.9301L186.504 41.0297L186.694 41.0428L186.93 40.9589L187.057 40.9471L187.188 40.782L187.32 40.7598L187.518 40.7978L187.639 40.7506L187.876 40.8528L188.029 40.951L188.102 41.5301L188.191 41.6454L188.321 41.9127L188.307 42.0397L188.192 42.2389L188.32 42.2494L190.82 43.5202L190.71 43.5909L190.549 43.6053L190.39 43.849L190.263 43.9145ZM184.309 45.1657L184.207 45.1264L184.189 45.0438L184.224 44.9272L184.45 44.9744L184.507 45.0425L184.492 45.0687L184.401 45.07L184.309 45.1657ZM184.306 45.4172L184.258 45.3582L184.189 45.3281L183.971 45.3464L183.975 45.3268L184.074 45.2298L184.205 45.2036L184.242 45.2285L184.318 45.4106L184.306 45.4172Z" fill="url(#paint13_linear_14_2)"/>
<path d="M190.825 18.9728V18.9964L190.912 19.0802L190.84 18.8274L190.748 18.6361L190.749 18.564L190.803 18.4186L190.859 18.3452L190.922 18.3282L190.971 18.3492L191.079 18.5169L191.142 18.699L191.314 18.7697L191.537 18.9243L191.697 18.9977L191.615 18.8025L191.614 18.6872L191.653 18.6073L191.755 18.6256L191.856 18.7763L191.814 18.8732L191.824 18.9479L192.015 19.2217L191.926 19.8335L192.005 19.9986L191.988 20.2187L192.082 20.41L192.196 20.4728L192.301 20.4886L192.341 20.5816L192.437 20.655L192.505 20.8515L192.605 20.9065H192.652L192.718 20.9537L192.867 21.1397L192.963 21.1685L193.039 21.2288L193.017 21.2642L193.026 21.3074L193.065 21.3231L193.134 21.255L193.136 21.1711L193.17 21.1384L193.232 21.1567L193.379 21.327L193.584 21.5118L193.692 21.8354L193.864 22.1183L194.069 22.2769L194.268 22.3555L194.338 22.4367L194.379 22.5376L194.394 22.7249L194.625 23.1114L194.818 23.1704L194.957 23.1795L195.012 23.4101L194.995 23.549L194.938 23.6079L194.946 23.7913L194.977 23.8791L195.024 23.9237L195.066 23.9355L195.142 24.1215L195.344 24.2145L195.35 24.2525L195.282 24.4005L195.19 24.7805L195.216 24.8827L195.251 25.3504L195.29 25.446L195.309 26.0054L195.222 26.0329L195.137 26.1548L195.179 26.3723L195.334 26.4928L195.448 26.6369L195.537 26.9421L195.656 27.1111L195.698 27.2251L195.667 27.4387L195.737 27.6168L195.802 27.7086L195.696 27.795L195.542 27.8553L195.354 27.8907L195.246 28.0348L195.013 28.0191L194.75 28.0466L194.518 27.9955L194.426 27.8998L194.364 27.8907L194.283 27.9588L194.255 28.0322L194.197 28.0715L193.917 28.1645L193.758 28.2431L193.622 28.3518L193.749 28.6427L193.704 28.906L193.434 29.037L193.347 28.9951L193.295 28.8942L193.052 29.0029L192.925 29.265L192.857 29.337L192.788 29.354L192.757 29.3396L192.7 29.2112L192.683 28.965L192.323 28.6518L191.967 28.4881L191.754 28.5326L191.519 28.5261L191.422 28.4592L191.314 28.3466L191.275 28.3374L191.084 28.361L190.881 28.4396L190.447 28.4776L190.324 28.4409L190.302 28.3937L190.266 28.3872L190.11 28.4304L189.659 28.8169L189.494 29.0252L189.386 29.0789H185.161H183.366H181.171L178.339 29.0776L178.17 29.0815L178.167 24.2944H173.937V9.94223L174.211 10.1676L174.346 10.22L174.623 10.2868L174.838 10.2737L174.906 10.3235L175.125 10.4165L175.362 10.4505L175.546 10.7086L175.576 10.8999L175.647 11.0388L175.715 11.1056L175.823 11.1436L175.964 11.1606L176.103 11.2536L176.218 11.3702L176.497 11.4515L176.593 11.5091L176.729 11.6323L176.785 11.6558L176.945 11.665L177.318 11.5969L177.511 11.5248L177.632 11.4593L177.827 11.3074L177.934 11.2694L178.008 11.1331L178.087 10.8239L178.108 10.6025L178.443 10.1636L178.573 9.86755L178.614 9.6527L178.771 9.23608L178.735 8.98847L178.819 8.44609L179.065 7.87881L179.109 7.69933L178.97 7.31416L178.906 6.90148L178.927 6.78095L179.008 6.57264L179.018 6.41019L178.987 6.29621L178.845 6.12589L178.834 5.95034L178.936 5.52063L179.143 5.1158L179.127 5.05161L179.062 4.97824L178.999 4.7267L179.01 4.68478L179.029 4.65203L179.173 4.56032L179.227 4.4935L179.296 4.30092L179.381 4.32712L179.426 4.40573L179.427 4.52233L179.487 4.61403L179.499 4.55246L179.42 4.31926L179.357 4.27341L179.186 4.01401L179.227 3.97994L179.2 3.95898L179.108 3.95243L179.096 4.03759L179.14 4.09785L179.058 4.12405L179.009 4.10178L179.012 4.06903L179.144 3.7795L179.268 3.60787L179.245 3.55809L179.309 3.37467L179.37 3.28297L179.431 3.25546L179.466 3.42839L179.617 3.39826L179.629 3.36288L179.514 3.25021L179.509 3.19126L179.54 3.02357L179.757 2.39472L179.808 2.07374L179.779 1.82089L179.792 1.78552L179.844 1.74752L180.068 1.70822L180.147 1.6021L180.211 1.44096L180.316 1.43703L180.448 1.49991L180.404 1.56804L180.311 1.65451L180.3 1.78683L180.39 1.67154L180.441 1.67547L180.631 1.83923L180.692 1.97417L180.802 2.42223L180.765 2.59516L180.804 2.88994L180.794 3.05894L180.947 3.19519L181.045 3.20305L181.137 3.16113L181.177 3.17685L181.272 3.28166L181.135 3.50306L181.107 3.6249L181.1 3.78343L181.173 3.80439L181.217 3.7926L181.342 3.85417L181.381 3.89741L181.386 4.04938L181.448 4.11488L181.502 4.12012L181.598 4.19349L181.52 4.37559L181.502 4.52888L181.563 4.56032L181.702 4.5446L181.716 4.57342L181.694 4.89178L181.726 5.19048L181.737 5.24288L181.793 5.2966L181.829 5.3752L181.817 5.51146L181.738 5.84684L181.838 6.10886L181.958 6.23594L181.976 6.47176L182.03 6.66697L182.094 6.80453L182.142 6.85693L182.243 6.91196L182.419 6.91327L182.619 6.75605L183.016 6.57264L183.075 6.44032L183.131 6.45342L183.219 6.58705L183.202 6.72592L183.27 6.91065L183.358 7.01677L183.571 7.0993L183.667 7.10585L183.755 7.30368L184.103 7.4622L184.258 7.58404L184.249 7.67051L184.142 7.86047L184.148 7.94694L184.204 8.03996L184.222 8.1487L184.165 8.3177L184.244 8.47622L184.32 8.73955V9.0055L184.392 9.07756L184.466 9.2518L184.443 9.55313L184.389 9.6278L184.38 9.77978L184.393 9.82301L184.467 9.87017L184.949 10.4768L184.996 10.4374L185.127 10.4152L185.161 10.4571L185.052 10.6654L185.058 10.7113L185.158 10.8842L185.269 11.1449L185.344 11.424L185.37 11.6296L185.344 11.7711L185.365 11.9231L185.356 12.0214L185.226 12.2991L185.236 12.4419L185.522 12.8192L185.693 12.8847L185.683 13.0511L185.619 13.2005L185.601 13.359L185.614 13.4088L185.696 13.5188L185.819 13.6158L185.854 13.6839L186.019 13.7926L186.145 13.8529L186.3 13.8568L186.473 14.0311L186.569 14.035L186.736 14.09L186.831 14.1804L186.992 14.2145L187.244 14.1948L187.265 14.1503L187.201 14.0389L187.282 14.1319L187.418 14.3796L187.474 14.6678L187.508 14.7372L187.579 14.8145L187.656 14.8328L187.721 14.8171L187.699 14.6953L187.709 14.6429L187.795 14.6442L187.837 14.6887L187.854 14.8551L187.921 14.9193L188.005 14.956L188.182 14.9481L188.356 14.9992L188.468 15.1355L188.422 15.1538L188.434 15.1944L188.517 15.2979L188.629 15.3896L188.703 15.3569L188.708 15.2678L188.664 15.2272L188.684 15.1748L188.781 15.2115L188.994 15.4041L189.129 15.4289L189.177 15.4958L189.267 15.7499L189.32 15.7643L189.363 15.8849L189.284 15.8652L189.216 15.7958L189.159 15.7683L189.09 15.7971L188.986 15.9268L189.073 16.1626L189.243 16.3421L189.345 16.4128L189.495 16.4665L189.682 16.6133L189.759 16.7115L189.745 16.8242L189.794 17.0129L189.864 17.0731L189.919 17.2539L189.999 17.3967L190.08 17.474L190.062 17.7636L190.19 18.2273L190.288 18.4658L190.377 18.5955L190.438 18.6453L190.442 18.8012L190.399 18.8667L190.494 18.8182L190.57 18.7553L190.605 18.6963L190.825 18.9728ZM195.203 23.9748L195.142 23.9617L195.085 23.8844L195.008 23.6027L195.083 23.4167L195.178 23.2581L195.177 23.1232L195.157 23.0891L195.216 22.966L195.363 22.8468L195.428 22.7184L195.439 22.6489L195.425 22.5952L195.341 22.4563L195.313 22.4406L195.367 22.3411L195.487 22.2611L195.499 22.5808L195.531 22.6529L195.599 22.6974L195.613 22.7524L195.269 23.5699L195.207 23.7756L195.228 23.9027L195.203 23.9748ZM175.555 10.2462L175.541 10.1597L175.579 10.009L175.659 9.89637L175.777 9.80598L176.022 9.77585L176.098 9.73392L176.37 9.77847L176.377 9.86493L176.316 9.89375L176.224 9.91341L176.163 9.86362L176.033 9.91603L176.054 9.96188L175.967 10.1073L175.81 10.1676L175.606 10.2056L175.555 10.2462ZM192.588 20.8436L192.511 20.7716L192.457 20.6497L192.362 20.5632L192.308 20.4401L192.295 20.3327L192.357 20.3183L192.554 20.444L192.582 20.4899L192.673 20.6654L192.689 20.786L192.652 20.8318L192.588 20.8436ZM185.626 12.8166L185.528 12.7786L185.501 12.6424L185.439 12.5572L185.374 12.5258L185.339 12.4602L185.397 12.4458L185.597 12.5402L185.714 12.7105L185.673 12.7917L185.626 12.8166ZM195.661 27.0404L195.637 26.9854L195.644 26.8491L195.699 26.5373L195.754 26.5242L195.851 26.5413L195.757 26.8531L195.728 27.0325L195.661 27.0404ZM195.687 26.4535L195.594 26.1888V25.974L195.715 25.9072L195.746 25.9307L195.673 26.2085L195.687 26.4535ZM179.835 1.52481L179.747 1.45275L179.74 1.36235L179.825 1.30602L179.883 1.29423L179.952 1.39904L179.943 1.45275L179.875 1.46978L179.835 1.52481ZM179.972 0.799009L179.874 0.757085L179.844 0.709922L179.899 0.626075L179.977 0.611664L180.024 0.633936L180.056 0.69158L179.972 0.799009ZM175.95 10.8148L175.91 10.7296L176.054 10.5934L176.127 10.6458L176.15 10.7545L175.984 10.7506L175.95 10.8148Z" fill="url(#paint14_linear_14_2)"/>
<path d="M186.51 54.9156L186.393 54.9745L186.367 54.9156L186.185 54.8868L186.063 54.7937L185.943 54.7675L185.635 54.7518L185.606 54.7309L185.585 54.6745L185.545 54.6627L185.374 54.7151L185.273 54.6811L185.124 54.4439L185.207 54.385L185.363 54.4086L185.439 54.4505L185.546 54.4728L185.548 54.3444L185.448 54.2605L185.394 54.3601L185.018 54.3116L184.987 54.2893L184.833 53.971L184.647 53.6723L184.617 53.6422L184.529 53.6461L184.456 53.5282L184.404 53.4168L184.307 53.0539L184.246 52.9871L184.174 52.9661L184.086 52.3923L184.096 52.2836L184.122 52.2495L184.16 52.3176L184.408 52.5089L184.469 52.7945L184.586 52.4644L184.512 52.412L184.453 52.4172L184.203 52.1395L184.175 52.0609L184.178 51.9456L184.157 51.8591L184.068 51.6744L183.885 51.5001L183.743 51.2473L183.364 50.3079L183.377 50.2411L183.338 50.042L183.295 49.9608L183.269 49.7721L183.383 49.6673L183.386 49.4498L183.471 49.3922L183.787 49.4302L183.972 49.5677L184.195 49.531L184.281 49.6044L184.568 49.6987L185.038 49.9804L185.49 50.1953L185.789 50.2228L185.921 50.1822L186.043 50.2516L186.037 50.1861L186.147 50.0682L186.247 50.0328L186.321 50.0564L186.352 50.1809L186.427 50.2188L186.545 50.2162L186.503 50.156L186.404 50.1337L186.376 50.1062L186.369 50.0158L186.433 49.9568L186.649 49.8586L186.832 49.9201L187.127 49.8599L187.212 49.9372L187.314 49.8756L187.455 49.628L187.486 49.6083L187.576 49.5861L187.61 49.6359L187.757 49.7027L187.806 49.7L187.896 49.6476L187.941 49.5703L187.966 49.4564L187.994 49.4249L188.054 49.4275L188.146 49.4708L188.346 49.6201L188.42 49.7184L188.498 49.8953L188.409 50.2175L188.419 50.3145L188.478 50.3918L188.483 50.5346L188.422 50.7599L188.431 50.9211L188.479 51.0612L188.409 51.4438L188.455 51.863L188.541 52.0032L188.549 52.2207L188.475 52.3268L188.424 52.2836L188.418 52.2377L188.455 52.1892L188.472 52.0635L188.372 51.7923L188.311 51.6914L188.148 52.0189L188.041 52.7958L187.977 52.8613L187.957 52.9714L187.972 53.1705L187.871 53.2766L187.814 53.4705L187.833 53.502L187.894 53.498L187.868 53.4417L187.91 53.4103L188 53.4653L188.036 53.5373L188.044 53.6723L187.99 53.7077L187.968 53.8767L188.044 54.0483L188.031 54.1583L187.996 54.161L187.896 54.0719L187.794 54.1164L187.741 54.1963L187.611 54.0339L187.519 53.8439L187.501 53.7509L187.579 53.6107L187.624 53.5976L187.658 53.6291L187.664 53.6762L187.642 53.7221L187.729 53.8164L187.85 53.8072L187.894 53.7692L187.79 53.5858L187.46 53.3828L187.412 53.3906L187.334 53.4496L187.362 53.5819L187.406 53.6788L187.368 53.7548L187.229 53.8007L187.197 53.7194L187.224 53.7024L187.203 53.5059L187.076 53.4234L187.12 53.536L187.089 53.7378L187.007 53.8387L186.969 53.9802L186.998 54.1164L186.977 54.2435L186.929 54.2749L186.88 54.2684L186.767 54.195L186.664 54.0732L186.645 53.95L186.615 53.9382L186.585 53.9867L186.584 54.1177L186.762 54.2815L186.704 54.4256L186.63 54.5422L186.56 54.7479L186.54 54.8894L186.51 54.9156ZM188.219 48.5432L188.092 48.4725L188.055 48.3336L188.063 48.2943L187.902 47.9891L187.701 47.8083L187.872 47.5803L187.993 47.5279L188.272 47.9039L188.324 47.9419L188.432 47.9707L188.444 48.0244L188.51 48.3899L188.505 48.4397L188.466 48.4764L188.288 48.5092L188.219 48.5432ZM182.287 48.2878L182.237 48.2511L182.219 48.1554L182.245 48.1358V48.0074L182.165 47.9013L182.169 47.8004L182.193 47.503L182.304 47.4205L182.321 47.372L182.306 47.2659L182.366 47.2488L182.492 47.3261L182.551 47.4113L182.57 47.7113L182.604 47.9039L182.591 48.0048L182.548 48.1017L182.287 48.2878ZM188.515 48.969L188.511 48.8786L188.487 48.8419L188.159 48.8839L188.033 48.8288L188.036 48.7568L188.129 48.6795L188.226 48.6742L188.324 48.7044L188.522 48.6035L188.714 48.8341L188.711 48.8537L188.614 48.8917L188.515 48.969ZM187.054 54.7112L186.964 54.6693L186.875 54.6889L186.801 54.533L187.05 54.2225L187.141 54.4623L187.079 54.6902L187.054 54.7112ZM187.137 54.2225L187.04 54.0168L187.131 53.857L187.186 53.9435L187.237 54.1806L187.233 54.2029L187.137 54.2225ZM188.058 53.2347L188.064 52.9779L188.146 52.915L188.219 52.9216L188.283 53.0474L188.276 53.067L188.177 53.0683L188.058 53.2347ZM183.651 49.3909L183.626 49.3725L183.62 49.2821L183.704 49.1812L183.831 49.328L183.651 49.3909Z" fill="url(#paint15_linear_14_2)"/>
<path d="M80.5761 21.481V35.8425C76.623 38.7256 70.5864 40.7008 65.4047 40.7008C54.0795 40.7008 45.4788 32.4795 45.4788 21.6414C45.4788 10.857 54.2397 2.68881 65.8859 2.68881C71.4418 2.68881 77.1037 4.8244 80.8968 8.13427L76.1423 14.1674C73.3642 11.6048 69.5185 10.003 65.8859 10.003C59.2613 10.003 54.1329 15.0748 54.1329 21.6414C54.1329 28.2614 59.3149 33.3338 65.9388 33.3338C68.1825 33.3338 70.8537 32.5329 73.2577 31.305V21.4813L80.5761 21.4813V21.481Z" fill="url(#paint16_linear_14_2)"/>
<path d="M87.9482 40.3271V2.95566L96.3884 2.95566V40.3271H87.9482Z" fill="url(#paint17_linear_14_2)"/>
<path d="M132.554 6.63926L129.295 13.6329C125.342 11.2838 120.641 9.789 117.65 9.789C114.818 9.789 112.895 10.8034 112.895 12.8323C112.895 19.7194 132.821 15.8755 132.768 29.329C132.768 36.6432 126.41 40.5938 118.131 40.5938C111.987 40.5938 105.843 38.2447 101.624 34.6677L104.989 27.7808C108.835 31.198 114.284 33.3867 118.237 33.3867C121.71 33.3867 123.793 32.1054 123.793 29.8097C123.793 22.7627 103.867 26.8734 103.867 13.6332C103.867 6.85302 109.69 2.58185 118.344 2.58185C123.58 2.58158 128.814 4.18341 132.554 6.63926Z" fill="url(#paint18_linear_14_2)"/>
<path d="M22.6067 23.8237H28.2948L23.4808 19.0674H17.583V24.7308L22.6067 29.7348V23.8237Z" fill="#EE7913"/>
<path d="M40.8507 36.2286L30.7021 26.2017H24.9865V32.1048L34.7118 41.7919H40.8507V36.2286Z" fill="url(#paint19_linear_14_2)"/>
<path d="M24.9862 26.2018H30.7018L28.2947 23.8236H22.6066V29.7347L24.9862 32.1049V26.2018Z" fill="#F0E64A"/>
<path d="M23.4139 33.5646C22.5522 33.7628 21.6561 33.8703 20.7318 33.8703C14.1204 33.8703 8.49759 28.437 8.49759 21.3924C8.49759 14.3477 14.0585 9.03412 20.7318 9.03412C27.405 9.03412 32.7187 14.3475 32.7187 21.3924C32.7187 22.5381 32.5759 23.6405 32.3118 24.6848L38.4311 30.7993C40.0088 28.0367 40.8914 24.8246 40.8914 21.3453C40.8914 10.4877 32.2214 2.35809 20.608 2.35809C9.04781 2.35809 0.378052 10.4343 0.378052 21.3453C0.378052 32.3097 9.04808 40.5466 20.608 40.5466C23.5923 40.5466 26.3813 39.998 28.8796 38.9997L23.4139 33.5646Z" fill="url(#paint20_linear_14_2)"/>
<path d="M17.583 19.0674L40.8504 41.792V36.2285L30.7019 26.2019L28.2949 23.8237L23.4809 19.0674H17.583Z" fill="#A38E8E" fill-opacity="0.172549"/>
<path d="M6.60603 63.4576H2.30286L8.85964 47.8474H14.0346L20.5821 63.4576H16.2789L11.5213 51.4146H11.3729L6.60603 63.4576ZM6.33709 57.3218H16.5015V59.8981H6.33709V57.3218Z" fill="#589632"/>
<path d="M37.2115 47.8474H41.2271V57.9849C41.2271 59.1232 40.8964 60.1191 40.2348 60.9728C39.5794 61.8265 38.6613 62.4922 37.4804 62.9698C36.2995 63.4424 34.9238 63.6787 33.3534 63.6787C31.7768 63.6787 30.3981 63.4424 29.2172 62.9698C28.0363 62.4922 27.1182 61.8265 26.4628 60.9728C25.8074 60.1191 25.4797 59.1232 25.4797 57.9849V47.8474H29.4954V57.7029C29.4954 58.2974 29.6531 58.8259 29.9684 59.2883C30.2899 59.7507 30.7412 60.114 31.3224 60.3783C31.9036 60.6425 32.5806 60.7746 33.3534 60.7746C34.1325 60.7746 34.8095 60.6425 35.3845 60.3783C35.9656 60.114 36.4139 59.7507 36.7292 59.2883C37.0507 58.8259 37.2115 58.2974 37.2115 57.7029V47.8474Z" fill="#589632"/>
<path d="M57.4461 52.3369C57.3719 51.722 57.0535 51.2443 56.4909 50.9039C55.9283 50.5634 55.1647 50.3932 54.2002 50.3932C53.5448 50.3932 52.9915 50.4694 52.5401 50.6219C52.0888 50.7692 51.7426 50.975 51.5014 51.2393C51.2665 51.5035 51.149 51.8033 51.149 52.1387C51.1367 52.4182 51.2078 52.6621 51.3623 52.8704C51.5231 53.0788 51.7426 53.2591 52.0208 53.4116C52.299 53.559 52.6205 53.6885 52.9853 53.8003C53.3501 53.907 53.7396 53.9985 54.1538 54.0747L55.8603 54.4101C56.6887 54.5625 57.4492 54.7658 58.1417 55.0199C58.8341 55.2739 59.4339 55.5865 59.9409 55.9574C60.4478 56.3284 60.8405 56.7654 61.1187 57.2684C61.4031 57.7715 61.5484 58.3482 61.5546 58.9987C61.5484 59.954 61.2516 60.7823 60.6642 61.4835C60.0831 62.1797 59.2422 62.7208 58.1417 63.107C57.0473 63.4881 55.7273 63.6787 54.1817 63.6787C52.6483 63.6787 51.3129 63.4856 50.1752 63.0994C49.0438 62.7132 48.1597 62.1415 47.5229 61.3844C46.8922 60.6222 46.5614 59.6796 46.5305 58.5566H50.4164C50.4596 59.08 50.642 59.517 50.9635 59.8676C51.2912 60.2131 51.7271 60.4748 52.2712 60.6527C52.8215 60.8254 53.4428 60.9118 54.1353 60.9118C54.8154 60.9118 55.4058 60.8305 55.9066 60.6679C56.4136 60.5053 56.8062 60.2792 57.0844 59.9895C57.3627 59.6999 57.5018 59.3671 57.5018 58.991C57.5018 58.6404 57.375 58.3457 57.1215 58.1069C56.8742 57.868 56.5094 57.6648 56.0272 57.4971C55.5511 57.3294 54.9669 57.177 54.2744 57.0398L52.2063 56.6129C50.6049 56.2928 49.3406 55.7923 48.4132 55.1113C47.4858 54.4304 47.0251 53.5132 47.0313 52.3597C47.0251 51.4146 47.3312 50.5888 47.9495 49.8825C48.5739 49.1762 49.4302 48.6249 50.5184 48.2285C51.6065 47.8321 52.8431 47.634 54.228 47.634C55.6377 47.634 56.868 47.8321 57.9191 48.2285C58.9764 48.6249 59.7987 49.1762 60.386 49.8825C60.9734 50.5888 61.2763 51.407 61.2949 52.3369H57.4461Z" fill="#589632"/>
<path d="M66.1438 50.5685V47.8474H81.7429V50.5685H75.928V63.4576H71.9587V50.5685H66.1438Z" fill="#589632"/>
<path d="M86.9234 63.4576V47.8474H94.4168C95.8512 47.8474 97.0754 48.0583 98.0894 48.48C99.1095 48.8967 99.8854 49.4887 100.417 50.256C100.955 51.0182 101.224 51.9151 101.224 52.9466C101.224 53.9833 100.952 54.8751 100.408 55.622C99.8638 56.3639 99.0755 56.933 98.043 57.3294C97.0167 57.7258 95.7739 57.9239 94.3148 57.9239H89.2975V55.2714H93.6656C94.4323 55.2714 95.0691 55.185 95.5761 55.0123C96.0831 54.8395 96.4602 54.5803 96.7075 54.2348C96.961 53.8892 97.0878 53.4599 97.0878 52.9466C97.0878 52.4283 96.961 51.9913 96.7075 51.6356C96.4602 51.2799 96.08 51.0106 95.5668 50.8277C95.0598 50.6397 94.4199 50.5456 93.6471 50.5456H90.939V63.4576H86.9234ZM97.1805 56.3538L101.901 63.4576H97.468L92.8495 56.3538H97.1805Z" fill="#589632"/>
<path d="M109.947 63.4576H105.644L112.201 47.8474H117.376L123.923 63.4576H119.62L114.862 51.4146H114.714L109.947 63.4576ZM109.678 57.3218H119.843V59.8981H109.678V57.3218Z" fill="#589632"/>
<path d="M128.821 63.4576V47.8474H132.837V60.7365H140.979V63.4576H128.821Z" fill="#589632"/>
<path d="M150.266 47.8474V63.4576H146.25V47.8474H150.266Z" fill="#589632"/>
<path d="M159.455 63.4576H155.152L161.709 47.8474H166.884L173.431 63.4576H169.128L164.37 51.4146H164.222L159.455 63.4576ZM159.186 57.3218H169.351V59.8981H159.186V57.3218Z" fill="#589632"/>
<defs>
<linearGradient id="paint0_linear_14_2" x1="168.614" y1="36.0104" x2="167.094" y2="0.809055" gradientUnits="userSpaceOnUse">
<stop stop-color="#B95323"/>
<stop offset="1" stop-color="#A53E13"/>
</linearGradient>
<linearGradient id="paint1_linear_14_2" x1="168.614" y1="36.0104" x2="167.094" y2="0.809055" gradientUnits="userSpaceOnUse">
<stop stop-color="#B95323"/>
<stop offset="1" stop-color="#A53E13"/>
</linearGradient>
<linearGradient id="paint2_linear_14_2" x1="168.614" y1="36.0104" x2="167.094" y2="0.809055" gradientUnits="userSpaceOnUse">
<stop stop-color="#B95323"/>
<stop offset="1" stop-color="#A53E13"/>
</linearGradient>
<linearGradient id="paint3_linear_14_2" x1="168.614" y1="36.0104" x2="167.094" y2="0.809055" gradientUnits="userSpaceOnUse">
<stop stop-color="#B95323"/>
<stop offset="1" stop-color="#A53E13"/>
</linearGradient>
<linearGradient id="paint4_linear_14_2" x1="168.614" y1="36.0104" x2="167.094" y2="0.809055" gradientUnits="userSpaceOnUse">
<stop stop-color="#B95323"/>
<stop offset="1" stop-color="#A53E13"/>
</linearGradient>
<linearGradient id="paint5_linear_14_2" x1="168.614" y1="36.0104" x2="167.094" y2="0.809055" gradientUnits="userSpaceOnUse">
<stop stop-color="#B95323"/>
<stop offset="1" stop-color="#A53E13"/>
</linearGradient>
<linearGradient id="paint6_linear_14_2" x1="168.614" y1="36.0104" x2="167.094" y2="0.809055" gradientUnits="userSpaceOnUse">
<stop stop-color="#B95323"/>
<stop offset="1" stop-color="#A53E13"/>
</linearGradient>
<linearGradient id="paint7_linear_14_2" x1="168.614" y1="36.0104" x2="167.094" y2="0.809055" gradientUnits="userSpaceOnUse">
<stop stop-color="#B95323"/>
<stop offset="1" stop-color="#A53E13"/>
</linearGradient>
<linearGradient id="paint8_linear_14_2" x1="167.889" y1="16.4795" x2="166.725" y2="2.02339" gradientUnits="userSpaceOnUse">
<stop stop-color="#B95323"/>
<stop offset="1" stop-color="#A53E13"/>
</linearGradient>
<linearGradient id="paint9_linear_14_2" x1="150.444" y1="27.6317" x2="148.983" y2="5.95747" gradientUnits="userSpaceOnUse">
<stop stop-color="#B95323"/>
<stop offset="1" stop-color="#A53E13"/>
</linearGradient>
<linearGradient id="paint10_linear_14_2" x1="189.588" y1="40.2426" x2="189.531" y2="39.3893" gradientUnits="userSpaceOnUse">
<stop stop-color="#B95323"/>
<stop offset="1" stop-color="#A53E13"/>
</linearGradient>
<linearGradient id="paint11_linear_14_2" x1="187.484" y1="37.9994" x2="187.069" y2="27.757" gradientUnits="userSpaceOnUse">
<stop stop-color="#B95323"/>
<stop offset="1" stop-color="#A53E13"/>
</linearGradient>
<linearGradient id="paint12_linear_14_2" x1="170.107" y1="37.4621" x2="169.393" y2="24.3711" gradientUnits="userSpaceOnUse">
<stop stop-color="#B95323"/>
<stop offset="1" stop-color="#A53E13"/>
</linearGradient>
<linearGradient id="paint13_linear_14_2" x1="184.769" y1="43.2947" x2="184.577" y2="37.4048" gradientUnits="userSpaceOnUse">
<stop stop-color="#B95323"/>
<stop offset="1" stop-color="#A53E13"/>
</linearGradient>
<linearGradient id="paint14_linear_14_2" x1="185.412" y1="19.3225" x2="184.3" y2="0.733629" gradientUnits="userSpaceOnUse">
<stop stop-color="#B95323"/>
<stop offset="1" stop-color="#A53E13"/>
</linearGradient>
<linearGradient id="paint15_linear_14_2" x1="185.594" y1="52.2781" x2="185.325" y2="47.2782" gradientUnits="userSpaceOnUse">
<stop stop-color="#B95323"/>
<stop offset="1" stop-color="#A53E13"/>
</linearGradient>
<linearGradient id="paint16_linear_14_2" x1="63.5952" y1="41.7346" x2="63.0036" y2="2.81212" gradientUnits="userSpaceOnUse">
<stop stop-color="#589632"/>
<stop offset="1" stop-color="#93B023"/>
</linearGradient>
<linearGradient id="paint17_linear_14_2" x1="92.2654" y1="41.3435" x2="89.8744" y2="3.218" gradientUnits="userSpaceOnUse">
<stop stop-color="#589632"/>
<stop offset="1" stop-color="#93B023"/>
</linearGradient>
<linearGradient id="paint18_linear_14_2" x1="117.554" y1="41.6276" x2="116.881" y2="2.7078" gradientUnits="userSpaceOnUse">
<stop stop-color="#589632"/>
<stop offset="1" stop-color="#93B023"/>
</linearGradient>
<linearGradient id="paint19_linear_14_2" x1="33.1011" y1="42.2159" x2="32.8789" y2="26.2517" gradientUnits="userSpaceOnUse">
<stop stop-color="#589632"/>
<stop offset="1" stop-color="#93B023"/>
</linearGradient>
<linearGradient id="paint20_linear_14_2" x1="21.1008" y1="41.5852" x2="20.5787" y2="2.47991" gradientUnits="userSpaceOnUse">
<stop stop-color="#589632"/>
<stop offset="1" stop-color="#93B023"/>
</linearGradient>
</defs>
</svg>
