<svg fill="none" xmlns="http://www.w3.org/2000/svg">

<symbol id="github" fill-rule="evenodd"  stroke-linejoin="round" stroke-miterlimit="1.414">
  <path  d="M12.5 0C5.59375 0 0 5.59687 0 12.5C0 18.0234 3.58125 22.7078 8.54687 24.3594C9.17187 24.4766 9.40156 24.0906 9.40156 23.7578C9.40156 23.4609 9.39062 22.675 9.38594 21.6328C5.90781 22.3875 5.175 19.9563 5.175 19.9563C4.60625 18.5125 3.78437 18.1281 3.78437 18.1281C2.65156 17.3531 3.87187 17.3688 3.87187 17.3688C5.12656 17.4563 5.78594 18.6562 5.78594 18.6562C6.90156 20.5672 8.7125 20.0156 9.42656 19.6953C9.53906 18.8875 9.86094 18.3359 10.2187 18.0234C7.44219 17.7109 4.525 16.6359 4.525 11.8469C4.525 10.4828 5.00938 9.36719 5.81094 8.49219C5.67031 8.17656 5.24844 6.90625 5.92031 5.18438C5.92031 5.18438 6.96719 4.84844 9.35781 6.46563C10.3578 6.1875 11.4203 6.05 12.4828 6.04375C13.5453 6.05 14.6078 6.1875 15.6078 6.46563C17.9828 4.84844 19.0297 5.18438 19.0297 5.18438C19.7016 6.90625 19.2797 8.17656 19.1547 8.49219C19.9516 9.36719 20.4359 10.4828 20.4359 11.8469C20.4359 16.6484 17.5141 17.7063 14.7328 18.0141C15.1703 18.3891 15.5766 19.1547 15.5766 20.3266C15.5766 21.9984 15.5609 23.3422 15.5609 23.7484C15.5609 24.0766 15.7797 24.4672 16.4203 24.3422C21.4219 22.7031 25 18.0156 25 12.5C25 5.59687 19.4031 0 12.5 0Z"/>
</symbol>
<symbol id="linkedin" fill-rule="evenodd"  stroke-linejoin="round" stroke-miterlimit="1.414">
  <path d="M21.3 21.3047H17.5969V15.5031C17.5969 14.1187 17.5687 12.3391 15.6687 12.3391C13.7391 12.3391 13.4438 13.8453 13.4438 15.4016V21.3047H9.74063V9.375H13.2969V11H13.3437C13.8406 10.0625 15.05 9.07344 16.8547 9.07344C20.6047 9.07344 21.3 11.5422 21.3 14.7563V21.3V21.3047ZM5.55938 7.74219C4.36875 7.74219 3.40937 6.77813 3.40937 5.59063C3.40937 4.40625 4.36875 3.44219 5.55938 3.44219C6.74688 3.44219 7.70938 4.40625 7.70938 5.59063C7.70938 6.77813 6.74531 7.74219 5.55938 7.74219ZM7.41562 21.3047H3.70312V9.375H7.41562V21.3047ZM23.15 0H1.84375C0.825 0 0 0.80625 0 1.80156V23.1984C0 24.1938 0.825 25 1.84375 25H23.1484C24.1672 25 25 24.1938 25 23.1984V1.80156C25 0.80625 24.1672 0 23.1484 0H23.15Z" />
</symbol>
<symbol id="youtube" fill-rule="evenodd"  stroke-linejoin="round" stroke-miterlimit="1.414">
  <path  d="M0 10.1693C0 8.14741 0.25 6.12241 0.25 6.12241C0.25 6.12241 0.49375 4.40366 1.24375 3.64272C2.19375 2.64741 3.44375 2.67866 4 2.57397C6 2.38022 12.5 2.32397 12.5 2.32397C12.5 2.32397 17.7531 2.33022 21.25 2.58335C21.7406 2.64272 22.8063 2.64585 23.7563 3.64272C24.5063 4.4021 24.75 6.12397 24.75 6.12397C24.75 6.12397 25 8.14585 25 10.1708V12.1365C25 14.1615 24.75 16.1833 24.75 16.1833C24.75 16.1833 24.5063 17.9052 23.7563 18.6646C22.8063 19.6615 21.7406 19.6646 21.25 19.724C17.7531 19.9771 12.5 19.9833 12.5 19.9833C12.5 19.9833 6 19.9255 4 19.7333C3.44375 19.6287 2.19375 19.6599 1.24375 18.6646C0.49375 17.9037 0.25 16.1849 0.25 16.1849C0.25 16.1849 0 14.1615 0 12.138V10.1693ZM9.91875 14.4349V7.41147L16.6734 10.9349L9.92344 14.4349H9.91875Z"/>
</symbol>
<symbol id="bluesky" fill-rule="evenodd"  stroke-linejoin="round" stroke-miterlimit="1.414">
  <path  d="M5.41908 1.53136C8.28527 3.75527 11.3682 8.26443 12.5001 10.6843C13.632 8.2646 16.7148 3.75522 19.5811 1.53136C21.6492 -0.073323 25 -1.31494 25 2.63594C25 3.42498 24.5623 9.26432 24.3056 10.2123C23.4132 13.5082 20.1614 14.3488 17.269 13.84C22.325 14.7294 23.6112 17.6753 20.8335 20.6212C15.5581 26.2161 13.2512 19.2174 12.6598 17.4241C12.5515 17.0954 12.5007 16.9416 12.5 17.0724C12.4992 16.9416 12.4485 17.0954 12.3402 17.4241C11.7491 19.2174 9.44223 26.2162 4.16653 20.6212C1.38878 17.6753 2.67494 14.7292 7.73103 13.84C4.83846 14.3488 1.58667 13.5082 0.694435 10.2123C0.437705 9.26423 0 3.4249 0 2.63594C0 -1.31494 3.35107 -0.073323 5.41908 1.53136Z"/>
</symbol>

</svg>
